{"glyphs":{":":{"x_min":0,"x_max":120,"ha":120,"o":"m 46 150 q 28 149 16 162 q 4 176 4 192 q 4 209 16 222 q 29 234 46 234 q 61 235 74 222 q 86 209 86 193 q 88 176 74 164 q 61 151 46 150 z m 46 280 q 28 279 16 292 q 4 306 4 322 q 4 339 16 352 q 29 364 46 364 q 61 365 74 352 q 86 339 86 323 q 88 306 74 294 q 61 281 46 280 z"},"$":{"x_min":0,"x_max":451,"ha":451,"o":"m 224 811 q 229 809 235 804 q 241 800 251 795 q 272 787 273 751 q 273 745 272 738 q 272 732 272 727 q 306 714 332 684 q 359 654 372 622 q 386 590 384 564 q 382 537 360 531 q 351 529 348 534 q 345 539 344 548 q 343 556 344 566 q 345 577 345 586 q 334 625 314 646 q 295 667 272 675 l 272 406 q 278 402 285 400 q 292 397 297 394 q 383 345 422 284 q 461 224 456 168 q 451 113 404 72 q 357 30 273 18 l 273 -31 q 273 -48 268 -52 q 264 -56 258 -54 q 252 -52 246 -47 q 239 -42 234 -41 q 222 -37 217 -26 q 212 -15 211 3 l 211 14 q 152 15 108 44 q 63 72 40 114 q 17 155 18 200 q 20 246 55 282 q 58 285 58 279 q 57 273 56 264 q 55 256 56 248 q 56 240 60 239 q 46 188 56 156 q 65 123 89 104 q 113 86 146 80 q 179 75 212 79 l 212 241 q 212 272 212 303 q 211 334 211 365 l 182 380 q 120 409 84 459 q 49 509 44 562 q 40 616 70 662 q 100 709 169 732 q 190 738 211 738 l 211 781 q 211 790 212 800 q 213 811 224 811 z m 272 329 l 266 87 q 306 93 332 117 q 359 141 364 175 q 369 209 348 250 q 327 290 272 329 z m 211 446 l 211 671 q 177 663 154 642 q 130 620 126 589 q 121 558 140 521 q 160 484 211 446 z"},"?":{"x_min":0,"x_max":419,"ha":419,"o":"m 237 302 q 229 290 218 270 q 206 251 198 232 q 190 212 191 195 q 192 178 210 170 q 215 168 220 166 q 224 165 223 158 q 221 151 214 150 q 208 150 202 150 q 182 153 168 167 q 154 181 152 202 q 147 250 166 302 q 186 353 211 406 q 236 460 256 514 q 276 569 273 623 q 258 679 222 702 q 187 725 148 720 q 110 714 78 682 q 45 649 37 594 q 36 589 36 585 q 37 581 36 575 q 36 568 32 562 q 28 557 18 557 q 8 557 6 563 q 5 569 5 575 q 3 606 12 634 q 22 663 41 686 q 60 709 88 726 q 115 744 148 752 q 185 761 223 758 q 261 755 294 742 q 326 728 349 704 q 372 680 381 647 q 389 599 376 553 q 364 507 340 463 q 317 419 288 378 q 260 338 237 302 z m 174 16 q 158 16 145 29 q 132 42 131 59 q 131 76 144 89 q 157 102 174 102 q 190 103 202 90 q 215 77 215 60 q 216 52 212 44 q 207 36 200 30 q 194 24 187 20 q 180 17 174 16 z"},"<":{"x_min":0,"x_max":262,"ha":262,"o":"m 223 113 q 218 100 210 92 q 201 83 191 75 q 182 69 177 74 q 172 80 167 85 q 88 164 7 242 q -4 253 -4 260 q -4 267 7 278 q 47 318 87 356 q 127 394 166 434 q 174 443 180 444 q 186 445 191 442 q 196 439 200 434 q 205 428 210 424 q 223 414 222 406 q 221 398 209 388 q 181 362 155 336 q 129 309 100 283 q 86 270 84 261 q 83 252 99 238 q 128 212 154 186 q 181 159 208 132 q 212 127 217 123 q 222 119 223 113 z"},"'":{"x_min":0,"x_max":104,"ha":104,"o":"m 81 552 q 81 537 80 528 q 80 520 76 516 q 73 512 66 512 q 59 511 46 511 q 34 511 27 512 q 20 513 16 516 q 13 520 12 528 q 12 535 12 549 q 12 565 12 579 q 11 593 12 608 q 12 616 12 628 q 12 639 22 642 q 35 645 49 646 q 63 646 77 638 q 80 636 80 629 q 81 622 81 616 z"},"=":{"x_min":0,"x_max":228,"ha":228,"o":"m 103 180 q 83 180 66 180 q 48 181 29 180 q 13 180 13 200 q 13 216 13 225 q 13 234 16 238 q 19 243 26 244 q 33 244 45 244 q 78 244 112 244 q 145 244 177 245 q 188 245 192 240 q 196 235 194 221 l 194 206 q 196 190 192 184 q 187 179 176 180 q 158 181 140 180 q 121 180 103 180 z m 103 273 q 83 273 66 274 q 48 274 29 273 q 13 273 13 293 q 13 309 13 318 q 13 327 16 332 q 19 336 26 336 q 33 337 45 337 q 78 337 112 337 q 145 337 177 338 q 188 338 192 333 q 196 328 194 314 l 194 299 q 196 283 192 278 q 187 272 176 273 q 158 274 140 274 q 121 273 103 273 z"},"a":{"x_min":0,"x_max":431,"ha":431,"o":"m 203 136 q 197 120 191 107 q 185 94 181 82 q 173 59 159 42 q 145 25 129 10 q 121 3 109 0 q 97 -4 84 -4 q 70 -3 57 0 q 44 4 34 12 q -10 43 -24 86 q -39 129 -36 176 q -33 244 12 301 q 26 320 48 333 q 69 346 94 351 q 118 356 143 352 q 168 349 189 336 q 204 325 226 325 q 239 325 254 325 q 268 325 282 324 q 307 322 312 316 q 316 310 312 286 q 305 240 300 194 q 296 149 299 102 q 300 93 301 82 q 302 71 304 61 q 307 51 312 43 q 318 35 327 33 q 344 29 358 43 q 372 57 382 78 q 392 99 398 120 q 405 142 408 154 l 422 216 q 423 222 426 228 q 428 235 439 233 q 451 230 450 224 q 448 218 447 213 q 440 175 432 138 q 424 101 404 66 q 392 43 375 24 q 358 5 327 1 q 292 -3 270 14 q 248 32 231 56 q 220 73 215 93 q 210 113 203 136 z m 71 118 q 72 107 73 87 q 74 67 79 50 q 84 34 94 28 q 105 22 123 40 q 139 54 150 77 q 161 100 169 126 q 177 152 183 178 q 189 203 195 222 q 200 242 199 260 q 198 277 187 295 q 175 318 155 320 q 135 321 121 299 q 92 257 82 211 q 73 165 71 118 z"},"L":{"x_min":0,"x_max":676,"ha":676,"o":"m 575 190 q 581 190 590 188 q 598 186 606 182 q 614 178 618 173 q 623 168 622 162 q 610 111 585 82 q 560 52 526 38 q 493 25 454 24 q 416 23 377 30 q 338 36 302 46 q 265 57 237 66 q 226 68 220 68 q 213 67 208 60 q 197 43 178 32 q 159 20 136 12 q 114 5 90 2 q 66 -1 45 1 q 28 3 15 18 q 2 32 1 57 q 5 85 18 100 q 32 116 51 122 q 70 129 90 130 q 111 130 128 127 q 141 123 147 126 q 153 129 155 142 q 163 230 160 312 q 156 393 158 476 q 159 489 160 496 q 160 503 156 507 q 153 511 145 514 q 137 516 122 519 q 92 526 72 544 q 51 562 40 588 q 28 613 25 644 q 22 675 27 708 l 42 706 q 40 656 46 626 q 52 595 65 577 q 78 559 98 551 q 118 543 144 538 q 153 536 158 538 q 163 540 163 550 q 169 612 196 659 q 223 706 260 734 q 297 763 339 771 q 381 779 417 764 q 452 749 463 724 q 474 700 468 672 q 462 644 443 615 q 424 586 398 563 q 373 540 344 526 q 315 511 290 512 q 270 509 270 491 q 268 404 266 345 q 263 286 259 245 q 255 204 248 176 q 242 147 232 121 q 230 116 232 112 q 233 109 243 106 q 262 100 287 94 q 312 88 339 84 q 366 81 392 82 q 419 83 440 93 q 462 103 476 124 q 491 145 495 180 q 496 190 506 192 q 516 195 528 194 q 541 194 554 192 q 567 190 575 190 z m 270 550 q 268 539 274 533 q 279 527 293 532 q 333 544 368 573 q 404 602 424 634 q 443 666 440 695 q 438 724 401 738 q 368 739 341 720 q 314 701 296 672 q 279 644 272 610 q 264 577 270 550 z m 144 89 q 145 95 143 100 q 141 104 132 105 q 116 107 99 105 q 82 103 68 98 q 53 92 43 82 q 33 73 32 60 q 30 46 34 36 q 38 26 57 24 q 119 21 144 89 z"},"3":{"x_min":0,"x_max":463,"ha":463,"o":"m 277 391 q 325 373 358 344 q 391 314 404 265 q 417 220 408 176 q 399 132 374 96 q 348 61 309 37 q 270 13 222 9 q 194 7 168 7 q 142 7 118 15 q 96 22 76 38 q 57 53 42 72 q 27 92 19 114 q 11 137 11 159 q 11 166 12 172 q 12 179 20 181 q 33 183 34 175 q 35 167 37 160 q 50 95 86 62 q 122 30 184 32 q 228 33 254 57 q 280 81 296 117 q 311 155 314 194 q 318 233 307 275 q 293 317 267 344 q 241 372 194 377 q 186 378 179 380 q 172 382 174 393 q 174 403 180 406 q 186 408 193 409 q 243 414 270 442 q 296 471 310 515 q 317 544 317 574 q 317 603 312 632 q 303 666 283 688 q 263 710 238 719 q 212 728 182 723 q 153 718 125 699 q 88 673 72 637 q 57 601 49 559 q 49 555 49 551 q 49 547 48 544 q 47 541 44 539 q 41 537 35 538 q 24 538 24 546 q 25 553 25 560 q 24 598 40 633 q 57 668 85 694 q 113 720 149 735 q 185 750 224 749 q 304 744 354 702 q 404 659 414 583 q 421 535 396 488 q 371 440 322 414 q 314 409 303 404 q 292 398 277 391 z"},";":{"x_min":0,"x_max":131,"ha":131,"o":"m 46 280 q 28 279 16 292 q 4 306 4 322 q 4 339 16 352 q 29 364 46 364 q 61 365 74 352 q 86 339 86 323 q 88 306 74 294 q 61 281 46 280 z m 86 196 q 80 175 66 155 q 52 135 23 122 q 16 120 8 120 q 1 119 -4 124 q -10 128 -6 132 q -2 135 3 140 q 16 154 14 170 q 11 186 12 202 q 14 217 24 226 q 33 235 54 233 q 76 231 82 221 q 87 211 86 196 z"},"J":{"x_min":0,"x_max":502,"ha":502,"o":"m 341 464 q 339 525 336 586 q 332 647 331 708 q 330 721 324 724 q 317 727 305 725 q 283 723 261 720 q 239 717 219 709 q 178 694 150 672 q 123 650 106 626 q 88 603 80 580 q 71 558 70 543 q 70 536 60 520 q 49 505 36 491 q 24 477 14 470 q 4 462 4 471 q 9 585 58 651 q 107 717 213 737 q 252 744 289 746 q 326 747 359 749 q 386 748 400 749 q 413 750 418 746 q 424 742 425 730 q 426 719 427 694 q 431 614 434 539 q 438 464 438 392 q 438 321 435 252 q 432 182 423 113 q 414 43 394 -21 q 375 -85 338 -130 q 300 -176 242 -198 q 184 -220 99 -206 q 180 -208 230 -160 q 281 -111 309 -30 q 328 61 333 156 q 339 236 340 312 q 341 388 341 464 z"},"V":{"x_min":0,"x_max":636,"ha":636,"o":"m 744 747 q 687 722 656 672 q 625 623 606 559 q 587 495 575 423 q 563 351 544 281 q 525 211 494 148 q 463 85 406 41 q 374 17 338 2 q 302 -14 270 -10 q 237 -6 212 22 q 188 51 180 113 q 177 138 170 194 q 164 250 154 320 q 144 389 130 464 q 115 538 95 600 q 75 661 50 700 q 25 740 -6 740 q 51 735 92 708 q 133 681 162 640 q 191 599 209 548 q 227 497 237 444 q 247 390 250 338 q 254 285 254 241 q 255 197 254 166 q 252 134 252 122 q 246 74 256 50 q 265 25 284 21 q 304 17 331 32 q 358 48 387 79 q 421 116 438 162 q 456 209 464 260 q 473 312 476 366 q 480 419 486 470 q 493 522 506 568 q 520 615 548 652 q 576 689 623 714 q 670 739 744 747 z"},"\"":{"x_min":0,"x_max":214,"ha":214,"o":"m 102 552 q 102 537 102 528 q 101 520 98 516 q 94 512 87 512 q 80 511 67 511 q 55 511 48 512 q 41 513 38 516 q 34 520 34 528 q 33 535 33 549 q 33 565 32 579 q 32 593 33 608 q 33 616 33 628 q 33 639 43 642 q 56 645 70 646 q 84 646 98 638 q 101 636 102 629 q 102 622 102 616 z m 189 552 q 189 537 188 528 q 188 520 184 516 q 181 512 174 512 q 167 511 154 511 q 142 511 135 512 q 128 513 124 516 q 121 520 120 528 q 120 535 120 549 l 120 608 q 120 616 120 628 q 120 639 130 642 q 143 645 157 646 q 171 646 185 638 q 188 636 188 629 q 189 622 189 616 z"},"7":{"x_min":0,"x_max":435,"ha":435,"o":"m 295 473 q 300 521 304 567 q 307 613 308 658 q 308 669 306 676 q 304 684 291 683 q 265 681 230 683 q 196 685 162 684 q 128 683 98 676 q 69 670 53 652 q 45 656 39 660 q 33 663 26 667 q 0 684 0 700 q -1 715 26 732 q 59 750 100 752 q 142 753 186 748 q 230 743 272 737 q 315 731 350 735 q 372 736 384 735 q 396 734 401 728 q 406 721 406 708 q 407 694 406 671 q 397 566 375 464 q 353 362 332 261 q 320 204 314 148 q 309 91 304 34 q 303 21 300 12 q 297 3 280 4 q 265 6 262 14 q 260 23 260 37 q 258 91 261 146 q 264 201 270 256 q 275 311 282 366 q 289 420 295 473 z"},"S":{"x_min":0,"x_max":676,"ha":676,"o":"m 372 750 q 406 753 434 746 q 461 740 480 727 q 499 714 510 696 q 520 678 521 660 q 523 602 478 552 q 433 501 353 475 q 333 469 332 464 q 331 460 347 451 q 378 433 411 417 q 444 401 477 384 q 530 357 566 318 q 602 280 614 236 q 626 193 610 150 q 593 106 542 69 q 510 44 471 29 q 432 14 390 6 q 347 -1 301 -1 q 255 -1 209 5 q 165 11 130 27 q 94 43 68 66 q 41 88 24 114 q 7 141 1 168 q -14 258 57 328 q 87 356 130 369 q 172 382 216 382 q 261 381 304 368 q 346 355 377 331 q 327 351 272 359 q 216 367 167 358 q 118 349 81 320 q 44 292 31 238 q 16 176 40 134 q 65 91 110 64 q 156 38 214 28 q 271 17 322 20 q 373 28 409 50 q 445 73 466 104 q 486 134 490 169 q 495 204 484 239 q 473 274 446 305 q 419 336 377 357 q 334 377 292 397 q 251 417 218 444 q 213 449 206 450 q 200 451 192 450 q 160 449 131 455 q 102 461 81 478 q 60 494 49 522 q 38 549 40 590 l 57 589 q 58 548 68 524 q 78 501 94 490 q 111 478 131 475 q 151 472 172 471 q 181 471 186 472 q 192 474 186 485 q 156 535 160 580 q 163 626 191 662 q 219 698 266 721 q 313 744 372 750 z m 298 497 q 301 490 306 487 q 312 484 323 487 q 357 495 388 512 q 419 528 442 550 q 465 573 479 599 q 493 625 494 651 q 494 685 472 704 q 449 723 418 727 q 386 731 354 721 q 321 711 302 689 q 285 670 278 650 q 272 631 269 611 q 267 581 272 552 q 278 524 298 497 z"},"}":{"x_min":0,"x_max":202,"ha":202,"o":"m 140 641 q 138 598 133 553 q 128 508 125 463 q 123 446 124 428 q 124 411 138 397 q 141 393 141 387 q 141 381 138 376 q 126 364 122 350 q 117 337 117 322 q 117 307 120 292 q 122 276 122 261 q 126 207 131 154 q 136 102 130 48 q 124 -5 94 -38 q 65 -70 26 -66 q 19 -66 12 -65 q 6 -64 6 -56 q 4 -48 8 -45 q 13 -42 17 -40 q 32 -27 36 -10 q 39 7 37 23 q 35 76 33 126 q 31 177 32 227 q 33 270 40 308 q 48 345 74 375 q 79 380 80 385 q 81 390 75 395 q 57 414 48 437 q 39 460 36 484 q 32 508 32 534 q 33 559 34 584 q 36 616 39 648 q 42 680 44 712 q 45 721 46 730 q 46 740 44 749 q 42 758 38 766 q 33 774 23 780 q 21 781 20 785 q 20 789 20 793 q 22 800 27 801 q 32 802 37 804 q 65 806 92 785 q 118 764 129 729 q 136 708 137 686 q 138 664 140 641 z"},"Z":{"x_min":0,"x_max":716,"ha":716,"o":"m 487 667 q 472 673 446 681 q 419 689 386 694 q 353 700 318 700 q 282 700 250 689 q 217 678 192 654 q 167 630 155 587 q 153 581 142 578 q 132 576 117 576 q 102 576 86 579 q 69 582 55 586 q 41 591 33 597 q 25 603 26 610 q 38 660 70 689 q 101 718 144 732 q 186 747 236 750 q 287 752 338 748 q 389 744 436 738 q 484 731 521 727 q 541 725 560 724 q 580 724 601 724 q 607 724 609 718 q 611 711 612 704 q 613 697 606 693 q 599 689 593 687 q 584 684 572 671 q 560 658 548 640 q 536 623 526 603 q 515 583 510 567 q 495 522 482 476 q 468 431 453 386 q 448 377 452 374 q 457 370 466 368 q 487 366 508 364 q 528 362 549 363 q 578 365 592 373 q 605 381 612 404 q 615 409 616 416 q 616 423 629 421 q 641 419 640 413 q 639 407 637 402 q 632 373 612 360 q 591 347 564 344 q 538 340 510 342 q 483 345 464 348 q 450 351 444 348 q 437 344 434 333 q 422 288 402 246 q 382 203 361 161 q 350 138 335 120 q 320 101 303 81 q 297 76 296 72 q 295 67 307 65 q 349 58 384 54 q 420 49 450 55 q 480 61 506 82 q 531 102 553 146 q 556 156 574 148 q 592 141 612 128 q 632 114 647 98 q 662 83 659 77 q 641 43 612 25 q 582 7 547 0 q 512 -6 474 -3 q 435 0 400 8 q 364 16 334 28 q 303 39 284 48 q 274 53 269 49 q 264 45 257 40 q 228 17 197 2 q 166 -13 126 -17 q 94 -21 63 -18 q 2 -13 -1 37 q -2 54 14 70 q 29 87 55 93 q 84 99 112 98 q 140 98 168 93 q 189 90 201 88 q 213 87 220 90 q 228 93 234 101 q 240 109 249 125 q 271 170 288 214 q 305 259 321 305 l 339 360 q 341 366 339 369 q 337 372 328 373 q 302 377 276 378 q 251 380 225 378 q 204 377 195 368 q 186 359 182 349 q 177 339 173 332 q 169 324 160 326 q 150 328 150 334 q 151 339 152 344 q 156 372 178 385 q 199 398 226 401 q 254 404 282 401 q 311 398 329 394 q 340 390 346 394 q 351 397 354 407 q 366 445 379 484 q 392 523 407 558 q 422 594 442 622 q 461 651 487 667 z m 56 72 q 41 66 32 56 q 22 46 24 35 q 28 18 39 11 q 50 4 72 2 q 116 -3 145 14 q 174 32 199 56 q 206 63 200 65 q 194 67 188 67 q 156 74 122 78 q 88 83 56 72 z"},"x":{"x_min":0,"x_max":389,"ha":389,"o":"m 213 244 q 225 254 240 267 q 255 280 268 294 q 282 307 292 320 q 301 334 302 346 q 302 353 304 362 q 305 371 321 370 q 337 369 337 360 q 337 351 336 344 q 335 329 320 306 q 306 282 286 258 q 267 233 248 211 q 229 189 219 177 q 221 179 222 170 q 224 161 226 146 q 227 131 230 112 q 234 93 240 76 q 247 60 258 48 q 268 36 284 34 q 307 32 324 54 q 341 76 353 106 q 365 137 372 168 q 379 199 382 215 q 383 219 384 224 q 385 230 387 235 q 389 240 392 244 q 396 247 401 246 q 407 246 408 242 q 410 237 410 232 q 409 226 408 220 q 406 215 405 212 q 400 183 391 148 q 382 114 367 84 q 352 53 330 30 q 309 7 279 2 q 248 -1 222 12 q 196 24 178 44 q 161 65 154 90 q 148 116 156 140 q 147 132 136 122 q 124 112 112 101 q 101 90 92 78 q 83 67 80 58 q 76 50 75 42 q 74 33 73 26 q 71 14 65 9 q 59 4 53 4 q 47 5 42 12 q 38 18 38 29 q 42 61 57 90 q 72 118 101 140 q 120 156 130 172 q 141 189 138 209 q 137 221 136 242 q 134 263 130 284 q 125 305 116 320 q 107 336 91 338 q 71 340 58 328 q 44 317 35 300 q 26 284 21 265 q 16 246 13 233 q 11 225 9 222 q 7 219 -1 220 q -8 221 -10 226 q -12 231 -11 236 q -7 253 -2 270 q 2 288 9 305 q 16 322 27 338 q 38 354 55 368 q 85 390 115 382 q 145 375 168 352 q 191 330 204 300 q 216 269 213 244 z"},")":{"x_min":0,"x_max":315,"ha":315,"o":"m 134 17 q 116 -8 92 -24 q 69 -41 39 -46 q 33 -48 27 -46 q 21 -45 20 -36 q 18 -28 23 -26 q 28 -23 35 -20 q 52 -15 64 0 q 76 16 83 35 q 95 61 102 88 q 109 116 114 144 q 130 239 130 332 q 131 425 125 519 q 121 570 112 620 q 102 671 85 717 q 77 740 66 759 q 55 778 34 789 q 31 790 27 791 q 23 792 20 794 q 17 795 16 798 q 15 802 17 808 q 19 818 28 817 q 36 816 41 815 q 74 814 104 788 q 132 764 150 732 q 169 701 183 665 q 206 591 216 504 q 227 418 222 331 q 218 244 196 162 q 175 80 134 17 z"},"&":{"x_min":0,"x_max":504,"ha":504,"o":"m 158 436 q 141 447 127 456 q 113 464 99 473 q 73 495 60 524 q 46 554 46 584 q 45 615 57 644 q 69 674 95 697 q 122 721 160 736 q 199 751 240 748 q 280 746 318 722 q 357 698 384 646 q 389 635 396 624 q 403 614 392 606 q 385 601 380 602 q 376 604 374 608 q 371 613 369 619 q 367 625 364 630 q 353 647 342 664 q 330 680 313 693 q 286 715 258 720 q 229 724 204 714 q 180 703 162 678 q 145 654 141 618 q 138 590 143 562 q 148 534 161 511 q 174 488 194 472 q 215 456 242 452 q 249 451 255 450 q 261 448 261 438 q 261 430 255 428 q 249 427 243 426 q 217 420 197 408 q 177 396 162 378 q 147 361 136 340 q 126 318 119 294 q 87 202 113 113 q 125 75 150 52 q 175 28 205 20 q 235 13 266 23 q 298 33 324 63 q 358 102 368 148 q 379 193 365 244 q 356 277 346 290 q 336 302 326 302 q 315 302 304 292 q 292 283 282 271 q 271 259 262 248 q 252 237 245 234 q 255 268 276 292 q 296 317 318 340 q 340 362 360 386 q 379 410 387 444 q 395 474 408 476 q 421 479 432 465 q 443 451 450 426 q 456 402 451 378 q 446 355 426 338 q 407 322 367 324 q 383 293 390 258 q 398 223 396 188 q 394 152 383 119 q 372 86 353 59 q 326 24 290 8 q 254 -8 216 -8 q 177 -8 140 7 q 103 22 74 49 q 44 76 26 114 q 8 153 8 200 q 5 230 12 262 q 20 295 36 324 q 52 354 75 379 q 98 404 125 420 q 133 425 141 428 q 149 431 158 436 z"},"_":{"x_min":0,"x_max":450,"ha":450,"o":"m 216 7 q 176 7 137 8 q 98 9 58 7 q 40 7 32 13 q 25 19 25 33 q 24 54 25 65 q 26 76 32 81 q 38 86 52 87 q 67 88 93 88 q 163 88 233 88 q 303 88 373 89 q 395 89 404 82 q 413 75 409 58 l 409 39 q 413 20 403 13 q 393 6 370 7 q 332 9 294 8 q 255 7 216 7 z"},"v":{"x_min":0,"x_max":342,"ha":342,"o":"m -30 238 q -32 259 -28 280 q -25 301 -25 321 q -25 332 -20 336 q -15 339 -5 339 q 12 338 30 338 q 49 337 67 337 q 81 337 86 330 q 90 324 88 311 q 80 265 77 218 q 74 172 74 125 q 74 110 75 90 q 76 69 82 53 q 88 37 100 30 q 113 23 135 35 q 155 46 166 65 q 178 84 191 103 q 196 110 192 114 q 187 117 182 122 q 160 144 146 175 q 132 206 126 240 q 121 275 124 310 q 128 344 143 373 q 162 408 204 406 q 227 404 238 393 q 250 382 255 365 q 265 338 267 311 q 269 284 266 258 q 264 231 258 204 q 252 178 245 152 q 243 145 238 138 q 234 132 243 126 q 251 121 260 124 q 268 126 276 130 q 299 144 310 165 q 320 186 324 210 q 325 215 326 222 q 326 228 328 233 q 329 238 332 242 q 336 245 344 244 q 353 244 356 240 q 358 235 358 229 q 357 223 355 217 q 353 211 353 207 q 350 188 343 170 q 336 153 324 138 q 292 94 239 98 q 229 100 224 97 q 219 94 214 86 q 208 78 203 70 q 198 61 193 53 q 154 -2 86 2 q 54 4 32 20 q 10 36 -4 64 q -21 108 -24 150 q -27 193 -30 238 z m 241 290 q 241 307 238 324 q 235 342 227 358 q 222 369 216 374 q 210 380 199 380 q 180 380 170 359 q 155 333 152 305 q 150 277 154 247 q 158 221 164 196 q 170 171 191 151 q 208 131 215 155 q 225 187 232 221 q 240 255 241 290 z"},"O":{"x_min":0,"x_max":684,"ha":684,"o":"m 518 99 q 472 48 416 23 q 359 -2 301 -4 q 243 -6 188 15 q 134 36 90 78 q 47 120 20 182 q -7 243 -9 323 q -10 368 -8 410 q -5 451 4 490 q 13 529 30 566 q 46 603 74 639 q 106 681 146 706 q 185 732 228 743 q 270 754 314 752 q 357 750 398 737 q 438 724 472 700 q 507 677 532 646 q 579 586 600 512 q 622 439 620 364 q 617 290 591 220 q 565 151 518 99 z m 78 569 q 83 577 89 576 q 95 575 101 572 l 154 545 q 164 542 166 537 q 167 532 163 524 q 120 443 105 360 q 90 278 104 189 q 109 154 126 121 q 142 88 177 65 q 214 41 259 40 q 304 39 346 56 q 387 74 421 107 q 455 140 471 182 q 514 296 512 407 q 509 518 451 629 q 429 663 396 684 q 363 704 326 711 q 289 718 250 712 q 211 705 177 687 q 143 669 116 639 q 90 609 78 569 z"},"(":{"x_min":0,"x_max":263,"ha":263,"o":"m 97 17 q 56 80 34 162 q 13 244 8 331 q 4 418 14 504 q 25 591 48 665 q 62 701 80 732 q 99 764 127 788 q 157 814 190 815 q 195 816 204 817 q 212 818 214 808 q 218 795 211 793 q 204 791 197 789 q 176 778 165 759 q 154 740 146 717 q 129 671 120 620 q 110 570 106 519 q 100 425 100 332 q 101 239 117 144 q 122 116 129 88 q 136 61 148 35 q 155 16 167 0 q 179 -15 196 -20 q 203 -23 208 -26 q 213 -28 211 -36 q 210 -45 204 -46 q 198 -48 192 -46 q 162 -41 138 -24 q 115 -8 97 17 z"},"C":{"x_min":0,"x_max":662,"ha":662,"o":"m 615 293 q 626 292 626 286 q 626 280 625 274 q 622 243 609 210 q 596 178 576 148 q 556 118 529 92 q 502 66 471 47 q 420 18 361 8 q 302 -3 246 5 q 189 13 140 38 q 91 63 60 105 q 34 139 18 177 q 3 215 -2 254 q -8 294 -4 334 q -1 373 10 411 q 12 418 11 425 q 10 432 -1 438 q -26 452 -46 472 q -67 493 -77 518 q -87 544 -82 574 q -76 603 -49 635 q -40 645 -36 648 q -31 650 -30 650 q -29 649 -30 646 q -32 643 -34 642 q -67 601 -70 571 q -72 541 -59 520 q -46 498 -26 484 q -5 470 8 462 q 17 456 20 458 q 24 461 28 468 q 39 495 54 520 q 70 546 86 571 q 118 617 164 652 q 211 688 265 711 q 319 734 378 743 q 436 752 493 745 q 518 742 540 731 q 563 720 580 704 q 598 689 608 670 q 619 651 621 631 q 625 574 596 530 q 568 486 513 449 q 470 421 422 406 q 375 391 326 385 q 276 379 226 381 q 177 383 130 390 q 122 391 118 390 q 114 388 112 381 q 104 347 100 312 q 96 277 98 242 q 99 208 108 174 q 117 140 135 107 q 164 55 222 34 q 280 14 351 28 q 398 36 440 58 q 483 81 516 114 q 550 147 572 188 q 593 230 598 277 q 599 283 602 288 q 604 294 615 293 z m 126 430 q 118 413 143 410 q 221 398 298 403 q 375 408 445 440 q 508 468 547 506 q 586 545 597 602 q 601 629 588 654 q 576 679 552 697 q 528 715 496 724 q 465 732 431 727 q 368 715 320 686 q 271 658 235 618 q 199 579 172 530 q 146 482 126 430 z"},"W":{"x_min":0,"x_max":1056,"ha":1056,"o":"m 1079 753 q 1040 734 1022 702 q 1003 669 997 627 q 991 585 992 534 q 993 484 992 429 q 991 374 984 316 q 976 258 953 200 q 941 169 922 136 q 902 103 876 75 q 851 47 819 28 q 787 9 750 6 q 708 3 676 17 q 643 31 619 56 q 595 82 579 116 q 563 150 555 186 q 543 149 528 122 q 513 96 496 77 q 479 58 460 45 q 440 32 418 23 q 348 -7 296 1 q 244 9 207 44 q 170 78 146 134 q 121 190 106 256 q 92 321 86 391 q 79 461 78 524 q 77 586 79 636 q 81 687 83 713 q 81 729 87 737 q 93 745 103 748 q 113 751 126 750 q 138 750 149 750 q 171 749 184 748 q 198 748 204 740 q 211 731 212 711 q 214 691 212 650 q 208 577 207 508 q 206 438 208 378 q 209 318 212 270 q 215 222 218 192 q 226 119 254 83 q 283 47 320 44 q 356 42 395 72 q 434 103 464 163 q 490 215 503 265 q 516 315 518 372 q 520 420 520 460 q 520 500 520 536 q 519 572 518 608 q 518 643 518 684 q 518 709 520 718 q 522 726 527 727 q 532 728 540 726 q 548 724 561 727 q 567 727 577 728 q 587 728 596 728 q 606 727 612 725 q 619 723 619 719 q 616 639 617 558 q 618 476 622 401 q 626 326 633 263 q 640 200 650 157 q 669 94 699 68 q 729 42 762 49 q 795 56 827 95 q 859 134 882 200 q 893 232 894 284 q 896 335 897 394 q 898 453 904 514 q 909 574 927 624 q 945 675 981 710 q 1017 745 1079 753 z"},"A":{"x_min":0,"x_max":828,"ha":828,"o":"m 779 -2 q 761 -13 732 0 q 702 13 668 44 q 634 74 600 119 q 566 164 539 217 q 535 225 529 229 q 523 233 510 233 q 445 231 379 233 q 360 233 353 218 q 336 180 308 142 q 281 103 247 72 q 213 42 174 23 q 135 4 95 6 q 80 7 61 22 q 42 36 32 63 q 21 90 25 130 q 29 169 58 220 q 43 154 46 113 q 49 72 64 52 q 79 31 102 29 q 126 27 154 38 q 182 50 210 74 q 239 97 264 127 q 326 209 356 296 q 385 383 402 475 q 416 540 424 603 q 431 666 431 731 q 431 744 438 750 q 444 755 461 754 q 492 752 524 754 q 550 755 550 734 q 550 679 553 612 q 556 545 565 474 q 574 402 590 330 q 606 259 632 196 q 657 132 693 80 q 729 29 779 -2 z m 484 255 q 499 255 507 256 q 515 256 518 258 q 520 261 518 266 q 517 271 513 281 q 490 345 476 410 q 462 474 447 547 l 445 546 l 436 489 q 426 434 410 380 q 395 325 375 271 q 372 261 376 258 q 379 254 393 254 q 416 255 438 255 q 461 255 484 255 z"},"f":{"x_min":0,"x_max":282,"ha":282,"o":"m 149 -302 q 105 -309 72 -274 q 38 -238 16 -174 q -7 -110 -18 -26 q -30 59 -32 148 q -33 238 -24 326 q -16 413 2 484 q 21 554 49 600 q 77 646 115 652 q 151 658 176 648 q 200 639 215 623 q 230 607 236 588 q 242 570 241 557 q 233 570 229 578 q 225 585 220 590 q 214 595 206 598 q 198 602 183 607 q 147 609 124 576 q 102 543 89 492 q 76 441 72 380 q 67 320 67 266 q 67 211 70 172 q 74 132 78 124 l 80 120 q 102 88 143 94 q 199 105 231 142 q 263 178 274 236 q 276 242 276 245 q 275 248 277 252 q 280 259 288 254 q 297 249 295 239 q 287 177 258 140 q 229 103 175 76 q 158 68 140 67 q 122 66 104 68 q 118 42 134 6 q 150 -29 164 -68 q 177 -107 186 -146 q 195 -185 195 -218 q 195 -250 184 -272 q 174 -295 149 -302 z m 96 -228 q 120 -262 134 -270 q 148 -278 154 -268 q 161 -258 160 -233 q 160 -208 154 -176 q 149 -144 140 -108 q 131 -71 120 -39 q 108 -7 96 18 q 85 44 74 55 q 71 39 68 16 q 65 -8 66 -42 q 66 -76 72 -122 q 79 -168 96 -228 z"},"Q":{"x_min":0,"x_max":793,"ha":793,"o":"m 499 96 q 482 80 466 64 q 451 49 434 37 q 442 17 454 0 q 465 -17 482 -29 q 511 -50 542 -46 q 572 -42 589 -13 q 606 17 615 52 q 624 87 629 119 q 631 132 633 138 q 635 145 639 148 q 643 150 651 149 q 659 148 673 145 q 681 143 684 143 q 704 139 714 136 q 725 133 728 128 q 732 123 730 114 q 727 104 721 88 q 707 53 688 22 q 670 -9 637 -35 q 613 -51 587 -60 q 561 -68 529 -66 q 487 -64 462 -44 q 437 -24 424 8 q 422 13 420 17 q 418 21 416 25 q 343 -7 281 -7 q 219 -7 170 17 q 121 41 84 84 q 48 128 25 184 q 2 240 -6 303 q -15 366 -8 429 q -1 492 22 550 q 44 609 83 655 q 130 710 192 734 q 253 757 316 754 q 378 750 434 722 q 491 693 528 645 q 575 584 594 508 q 613 431 608 355 q 602 279 574 210 q 545 142 499 96 z m 76 566 q 81 574 86 573 q 92 572 98 569 l 152 542 q 161 539 162 534 q 164 528 160 519 q 74 355 101 176 q 106 141 123 108 q 140 74 174 50 q 202 29 232 22 q 262 15 291 18 q 320 22 348 36 q 375 49 398 70 q 397 81 390 91 q 384 101 376 108 q 367 115 358 119 q 350 123 345 123 q 359 131 381 120 q 403 108 417 86 q 461 138 483 206 q 505 274 508 346 q 512 418 498 488 q 484 558 455 616 q 434 659 401 684 q 368 708 330 716 q 292 724 252 718 q 213 711 178 691 q 143 671 116 639 q 88 607 76 566 z"},"w":{"x_min":0,"x_max":575,"ha":575,"o":"m 214 123 l 183 54 q 169 25 147 10 q 125 -6 93 -5 q 27 -3 -2 56 q -17 93 -22 130 q -28 167 -28 205 q -27 231 -26 257 q -26 283 -27 308 q -28 336 0 334 q 17 332 34 331 q 50 330 65 331 q 91 331 88 307 q 83 269 79 232 q 75 194 75 156 q 75 131 75 106 q 75 81 81 55 q 85 40 94 32 q 102 25 112 24 q 123 24 133 30 q 143 36 149 47 q 168 82 180 118 q 192 154 197 192 q 201 224 205 254 q 209 284 212 313 q 215 334 234 333 q 251 332 268 332 q 285 331 303 331 q 320 331 324 324 q 327 316 325 304 q 317 255 312 206 q 308 158 310 109 q 310 67 323 48 q 336 29 354 29 q 373 29 394 48 q 415 66 430 99 q 433 104 428 108 q 424 111 420 115 q 397 137 382 169 q 368 201 362 236 q 357 271 362 306 q 367 340 382 368 q 402 403 441 400 q 463 398 475 388 q 487 377 494 360 q 511 311 505 263 q 499 215 488 166 q 487 162 486 158 q 485 155 484 152 q 484 148 481 144 q 478 139 476 135 q 475 131 476 127 q 477 123 483 120 q 494 115 504 120 q 514 124 524 131 q 541 145 549 164 q 557 183 562 203 q 563 208 563 215 q 563 222 565 227 q 568 241 584 240 q 592 238 592 233 q 591 228 590 223 q 589 197 584 176 q 578 155 564 135 q 548 112 527 101 q 506 90 477 92 q 466 94 461 90 q 456 87 451 78 q 440 60 428 44 q 416 29 401 18 q 386 6 367 0 q 348 -6 324 -5 q 256 -1 234 61 q 229 75 224 90 q 219 106 214 123 z m 479 283 q 479 300 476 316 q 473 333 465 349 q 463 360 457 366 q 451 373 438 374 q 424 374 418 368 q 412 362 407 350 q 384 302 389 255 q 394 208 416 160 q 418 155 422 152 q 425 148 429 144 q 445 127 453 149 q 464 181 470 215 q 476 249 479 283 z"},"-":{"x_min":0,"x_max":235,"ha":235,"o":"m 103 223 q 83 223 66 224 q 48 224 29 223 q 13 223 13 243 q 13 259 13 268 q 13 277 16 282 q 19 286 26 286 q 33 287 45 287 q 78 287 112 287 q 145 287 177 288 q 188 288 192 283 q 196 278 194 264 l 194 249 q 196 233 192 228 q 187 222 176 223 q 158 224 140 224 q 121 223 103 223 z"},"E":{"x_min":0,"x_max":676,"ha":676,"o":"m 642 285 q 653 284 654 279 q 655 274 654 269 q 639 205 604 150 q 569 94 498 50 q 454 23 397 10 q 340 -3 281 0 q 222 2 168 19 q 113 36 76 69 q 38 101 24 142 q 9 183 16 224 q 24 266 52 304 q 81 342 129 368 q 144 376 146 382 q 148 387 133 395 q 131 396 125 401 q 119 406 112 413 q 104 420 96 428 q 89 436 86 443 q 84 447 80 450 q 77 452 71 454 q 65 456 54 458 q 44 461 28 467 q -12 480 -36 504 q -60 528 -71 556 q -82 585 -83 616 q -84 646 -79 674 l -77 670 l -76 670 q -79 673 -70 667 q -75 614 -64 580 q -52 547 -32 526 q -12 506 14 496 q 41 485 66 478 q 75 475 80 476 q 85 477 83 485 q 72 545 98 594 q 124 643 184 684 q 247 728 320 743 q 394 758 476 750 q 515 747 543 734 q 571 720 588 700 q 606 680 612 655 q 617 630 610 605 q 599 566 571 536 q 543 507 498 484 q 436 454 369 443 q 302 432 229 434 q 225 434 221 434 q 217 435 213 435 q 209 435 207 433 q 205 431 206 426 q 208 418 210 410 q 213 402 231 404 q 256 407 280 411 q 303 415 326 416 q 349 417 371 412 q 393 408 416 395 q 427 388 430 378 q 432 369 421 359 q 407 345 382 340 q 356 335 328 336 q 300 336 274 340 q 248 343 233 347 q 219 352 210 350 q 201 347 193 339 q 167 313 155 284 q 143 256 135 226 q 122 173 136 132 q 149 91 181 64 q 213 38 259 27 q 305 16 358 24 q 433 34 483 66 q 533 98 568 143 q 590 174 606 206 q 621 237 626 271 q 627 276 630 280 q 632 285 642 285 z m 192 482 q 194 468 199 462 q 204 455 226 454 q 248 452 270 454 q 292 455 314 457 q 379 462 434 480 q 489 498 533 535 q 587 582 586 636 q 585 666 566 688 q 547 711 509 723 q 465 737 422 734 q 379 732 341 711 q 295 687 265 658 q 235 630 218 600 q 200 571 194 540 q 189 510 192 482 z m 265 382 q 257 379 256 377 q 254 375 261 370 q 270 365 287 362 q 304 358 322 357 q 341 356 358 357 q 375 358 386 363 q 391 365 396 368 q 400 370 401 375 q 401 380 396 383 q 390 386 385 388 q 321 400 265 382 z"},"s":{"x_min":0,"x_max":334,"ha":334,"o":"m 29 299 q 26 278 22 258 q 18 237 15 221 q 12 205 0 208 q -8 210 -10 216 q -11 222 -11 228 l 10 397 q 10 400 14 410 q 19 419 28 430 q 37 440 50 450 q 64 460 84 463 q 103 466 128 460 q 154 455 186 436 q 190 433 192 426 q 194 420 192 416 q 191 411 185 410 q 179 409 168 417 q 153 427 136 429 q 120 431 106 428 q 92 424 82 417 q 71 410 68 402 q 61 380 64 364 q 68 349 78 338 q 87 327 100 318 q 114 309 126 300 q 146 283 170 272 q 193 260 214 244 q 248 218 264 186 q 281 154 275 112 q 286 124 301 156 q 316 187 322 232 q 323 240 329 241 q 335 242 341 240 q 348 239 348 235 q 348 231 347 226 q 340 182 324 142 q 308 101 279 66 q 251 35 217 20 q 183 4 141 0 q 120 -2 99 -1 q 78 0 60 6 q 42 11 28 22 q 13 34 4 54 q -7 83 -2 108 q 4 132 24 155 q 40 176 63 168 q 72 166 74 158 q 75 151 75 143 q 75 132 72 124 q 68 116 54 113 q 40 111 34 102 q 29 93 28 79 q 29 60 40 47 q 50 34 66 28 q 82 23 100 25 q 118 27 133 38 q 153 50 159 68 q 165 87 164 110 q 162 136 150 159 q 138 182 119 202 q 96 224 73 246 q 50 269 29 299 z"},">":{"x_min":0,"x_max":290,"ha":290,"o":"m 23 113 q 24 119 29 123 q 34 127 38 132 q 65 159 92 186 q 118 212 147 238 q 163 252 162 261 q 160 270 146 283 q 117 309 91 336 q 65 362 37 388 q 25 398 24 406 q 23 414 36 424 q 41 428 46 434 q 50 439 55 442 q 60 445 66 444 q 72 443 80 434 q 119 394 159 356 q 199 318 239 278 q 250 267 250 260 q 250 253 239 242 q 158 164 79 85 q 74 80 69 74 q 64 69 55 75 q 45 83 36 92 q 28 100 23 113 z"},"l":{"x_min":0,"x_max":226,"ha":226,"o":"m 231 228 q 242 228 240 217 q 238 206 236 198 q 230 167 220 129 q 209 91 194 63 q 180 37 160 17 q 140 -3 101 -3 q 60 -5 28 12 q -3 28 -12 60 q -27 112 -32 172 q -38 233 -36 295 q -33 357 -22 418 q -12 480 6 535 q 23 590 47 636 q 71 681 100 712 q 118 730 148 740 q 178 751 210 751 q 242 751 271 739 q 300 727 315 702 q 264 728 227 720 q 190 713 163 684 q 136 656 118 612 q 101 569 90 524 q 80 479 75 438 q 70 397 68 374 q 60 293 60 216 q 61 140 79 66 q 87 25 110 24 q 133 22 157 53 q 168 68 176 88 q 185 107 192 128 q 198 149 202 170 q 207 190 211 208 q 213 216 213 222 q 213 228 231 228 z"},"8":{"x_min":0,"x_max":418,"ha":418,"o":"m 207 755 q 260 756 300 734 q 339 713 360 676 q 381 640 380 593 q 380 546 354 497 q 339 466 316 443 q 292 420 264 400 q 245 386 244 377 q 244 368 265 358 q 307 332 335 298 q 363 263 367 211 q 374 155 356 106 q 339 58 288 27 q 264 11 236 3 q 208 -5 180 -4 q 151 -4 124 4 q 96 12 73 29 q 22 63 6 111 q -9 159 0 216 q 9 269 36 310 q 64 350 104 382 q 121 398 121 408 q 121 418 104 434 q 75 459 58 491 q 41 523 36 557 q 30 591 36 624 q 43 658 61 686 q 112 755 207 755 z m 202 357 q 193 363 186 359 q 180 355 172 349 q 63 268 74 135 q 78 90 104 64 q 131 38 174 36 q 225 40 256 60 q 288 79 303 108 q 318 136 318 171 q 317 206 303 240 q 289 275 263 306 q 237 336 202 357 z m 159 437 q 166 434 172 432 q 179 431 187 436 q 215 455 238 476 q 260 497 276 522 q 291 548 298 578 q 305 607 302 642 q 297 687 266 710 q 236 733 190 727 q 156 720 133 701 q 110 682 97 656 q 84 629 81 598 q 78 567 86 537 q 93 507 112 480 q 130 454 159 437 z"},"\\":{"x_min":0,"x_max":356,"ha":356,"o":"m 44 748 q 60 748 64 739 q 67 730 69 723 q 110 608 151 494 q 192 379 234 263 q 252 213 270 162 q 287 112 307 61 q 312 46 310 36 q 307 26 289 23 q 282 22 274 18 q 266 14 258 12 q 250 11 242 14 q 235 18 230 33 q 170 201 111 366 q 52 531 -9 698 q -18 730 11 734 q 20 738 28 742 q 37 746 44 748 z"},"e":{"x_min":0,"x_max":306,"ha":306,"o":"m 105 335 q 137 342 174 337 q 195 335 210 326 q 225 316 234 302 q 242 288 242 271 q 243 254 235 236 q 226 213 206 198 q 187 183 163 173 q 147 167 130 161 q 113 155 93 153 q 73 153 73 136 q 72 116 76 96 q 79 77 90 59 q 111 25 154 34 q 185 38 206 54 q 226 71 242 91 q 264 117 274 147 q 285 177 290 207 q 292 212 292 217 q 293 222 295 227 q 297 232 302 234 q 307 235 313 233 q 323 232 321 220 q 316 189 308 159 q 299 129 284 102 q 269 76 244 54 q 220 31 184 15 q 163 5 138 2 q 113 -1 88 4 q 62 10 38 24 q 13 37 -7 59 q -40 96 -44 140 q -47 185 -29 225 q -11 265 24 296 q 60 326 105 335 z m 78 202 q 79 195 78 188 q 78 182 92 180 q 111 178 132 185 q 152 192 170 204 q 187 215 199 230 q 211 245 214 261 q 218 281 209 292 q 200 304 186 308 q 172 312 156 308 q 139 305 127 295 q 103 275 94 252 q 84 228 78 202 z"},"b":{"x_min":0,"x_max":420,"ha":420,"o":"m 423 224 q 436 222 433 214 q 430 207 429 201 q 425 174 418 148 q 412 122 398 96 q 373 54 328 29 q 286 9 242 2 q 198 -4 153 -4 q 147 -4 141 -2 q 135 -1 134 8 q 132 14 135 20 q 138 25 146 27 q 159 30 168 38 q 176 47 182 57 q 194 79 204 106 q 214 134 220 164 q 226 193 226 222 q 225 252 215 278 q 204 301 192 304 q 179 306 163 283 q 136 244 124 202 q 111 159 100 115 q 95 92 95 70 q 95 47 96 25 q 96 12 91 6 q 86 0 71 1 l 12 1 q -2 0 -7 6 q -12 12 -12 25 q -14 98 -15 170 q -16 242 -11 316 q -10 344 -7 380 q -4 417 2 456 q 7 496 16 537 q 24 578 38 614 q 52 650 72 680 q 92 709 119 726 q 156 750 184 748 q 213 747 232 736 q 251 724 260 711 q 269 698 267 699 q 252 712 234 716 q 215 721 198 718 q 181 714 166 702 q 152 691 145 673 q 137 656 130 622 q 123 587 117 544 q 111 500 106 452 q 102 405 99 364 q 96 322 94 292 q 93 261 95 250 l 95 248 q 95 233 98 215 q 116 260 134 293 q 149 316 171 330 q 193 344 225 342 q 286 341 313 287 q 329 255 333 222 q 337 189 330 158 q 324 126 307 96 q 290 67 263 42 q 261 40 261 38 q 261 37 259 34 q 295 39 323 56 q 351 72 371 101 q 386 124 392 151 q 399 178 405 205 q 407 211 408 218 q 410 226 423 224 z"},"%":{"x_min":0,"x_max":545,"ha":545,"o":"m 49 4 q 41 15 34 29 q 28 43 23 60 q 19 75 24 83 q 30 91 35 99 q 141 257 245 413 q 349 569 454 727 q 470 750 478 746 q 485 742 493 725 q 497 717 501 710 q 505 703 506 696 q 507 688 504 679 q 501 670 493 659 q 387 501 282 344 q 178 186 72 27 q 67 19 62 12 q 56 5 49 4 z m 272 554 q 272 516 262 485 q 253 454 237 434 q 221 414 200 408 q 180 401 157 411 q 139 419 126 439 q 113 459 106 486 q 99 513 98 544 q 98 575 105 606 q 112 633 124 653 q 137 673 152 684 q 168 694 186 694 q 204 695 222 684 q 245 670 258 636 q 272 602 272 554 z m 218 633 q 214 646 208 654 q 201 663 190 663 q 179 664 172 657 q 165 650 160 636 q 133 555 150 472 q 155 457 162 448 q 168 438 179 437 q 191 436 199 444 q 207 451 213 464 q 227 504 228 550 q 229 596 218 633 z m 232 145 q 232 209 257 250 q 282 292 322 292 q 340 293 356 282 q 372 271 384 252 q 396 233 402 208 q 409 182 409 152 q 408 122 400 95 q 392 68 379 48 q 366 28 350 16 q 333 5 315 6 q 297 6 282 16 q 267 27 256 46 q 244 65 238 90 q 232 116 232 145 z m 285 69 q 290 55 296 46 q 302 38 313 36 q 324 35 332 41 q 340 47 345 61 q 362 104 364 148 q 365 191 350 236 q 339 265 322 264 q 305 264 294 236 q 287 220 283 198 q 279 175 278 152 q 277 128 278 106 q 280 84 285 69 z"},"m":{"x_min":0,"x_max":662,"ha":662,"o":"m 86 252 q 97 269 106 288 q 116 308 128 325 q 140 342 158 351 q 176 360 196 360 q 216 360 234 352 q 253 344 267 327 q 287 302 299 272 q 311 243 318 206 q 329 242 343 271 q 357 300 378 326 q 391 344 411 352 q 431 361 452 360 q 473 360 492 350 q 512 341 524 323 q 538 302 544 280 q 549 257 550 232 q 552 194 550 154 q 547 115 546 77 q 546 70 546 62 q 546 55 548 48 q 549 42 553 38 q 557 33 565 32 q 579 29 588 40 q 596 51 603 64 q 623 102 631 143 q 639 184 648 226 q 648 231 648 236 q 648 240 650 245 q 655 256 667 256 q 679 253 677 240 q 675 224 672 210 q 670 195 667 180 q 660 145 651 112 q 642 79 624 48 q 610 24 590 6 q 571 -13 540 -14 q 522 -14 506 -7 q 490 0 477 13 q 464 26 456 44 q 447 61 444 81 q 432 155 441 228 q 443 244 444 258 q 444 272 440 287 q 433 307 423 310 q 413 313 403 306 q 393 300 384 288 q 376 276 372 266 q 325 158 328 38 q 328 23 328 15 q 327 7 323 4 q 319 0 310 0 q 302 -1 287 -1 q 278 -1 268 -2 q 259 -4 250 -5 q 241 -6 232 -4 q 224 -2 218 4 q 212 10 211 18 q 210 26 211 35 q 212 44 214 54 q 216 64 217 73 q 219 118 220 164 q 221 210 215 256 q 213 267 208 284 q 203 300 194 312 q 186 324 174 326 q 162 327 147 307 q 129 279 119 250 q 109 221 103 191 q 93 151 88 111 q 84 71 86 31 q 90 -8 53 -2 q 24 0 -5 -2 q -19 -2 -24 4 q -28 9 -28 22 q -27 179 -28 338 q -28 352 -22 358 q -17 363 -3 363 q 30 361 63 363 q 87 363 86 339 q 85 318 86 295 q 86 272 86 252 z"},"#":{"x_min":0,"x_max":587,"ha":587,"o":"m 404 290 q 386 292 375 277 q 364 262 359 239 q 352 198 343 156 q 334 114 326 72 q 319 46 304 36 q 289 27 272 40 q 258 48 256 64 q 254 79 258 99 q 266 136 273 172 q 280 209 288 246 q 293 266 288 272 q 284 278 271 278 q 244 278 231 278 q 218 279 212 274 q 207 268 204 254 q 202 240 196 211 q 188 179 182 146 q 175 112 168 79 q 160 53 148 41 q 135 29 119 37 q 87 47 97 102 q 106 140 114 178 q 121 215 129 252 q 133 267 128 280 q 123 294 112 294 q 92 293 72 292 q 53 292 30 294 q -8 296 -2 334 q 0 354 4 362 q 9 371 26 371 q 77 370 131 371 q 140 371 149 381 q 158 391 162 402 q 167 414 164 424 q 161 434 145 434 l 31 434 q 10 434 6 444 q 1 454 0 477 q -2 497 3 509 q 8 521 28 521 q 61 523 92 522 q 124 521 157 520 q 174 518 182 531 q 191 544 196 563 q 203 600 210 636 q 218 672 227 709 q 233 735 246 745 q 258 755 272 750 q 289 743 294 728 q 298 712 294 686 q 286 653 280 620 q 275 586 268 551 q 261 525 280 525 l 285 525 q 308 524 320 524 q 333 525 340 531 q 347 537 351 552 q 355 567 360 594 q 366 621 372 649 q 377 677 384 703 q 391 732 404 744 q 417 755 433 750 q 450 743 454 726 q 459 710 454 680 q 448 651 442 623 q 435 595 430 565 q 423 536 426 526 q 429 517 454 517 l 524 516 q 530 515 538 512 q 546 510 552 505 q 558 500 562 491 q 565 482 563 468 q 563 464 562 459 q 562 454 560 448 q 557 443 551 439 q 545 435 534 434 q 507 433 481 434 q 455 434 426 434 q 409 434 400 422 q 391 409 393 386 q 393 374 399 372 q 405 371 412 371 l 526 371 q 546 370 552 358 q 557 346 557 323 q 557 301 550 294 q 542 288 520 290 q 508 291 493 290 q 478 290 462 289 q 447 288 432 288 q 416 288 404 290 z m 261 442 q 223 442 225 387 q 225 374 228 370 q 232 365 236 365 q 241 365 246 366 q 252 368 256 367 q 264 365 272 366 q 279 367 287 367 q 298 365 304 370 q 310 375 313 384 q 316 392 317 402 q 318 413 319 423 q 320 436 318 440 q 315 444 310 444 q 305 444 300 442 q 294 440 290 442 q 288 444 286 443 q 283 442 278 442 z"},",":{"x_min":0,"x_max":102,"ha":102,"o":"m 83 45 q 77 24 63 4 q 49 -16 20 -29 q 13 -31 6 -32 q -2 -32 -7 -27 q -13 -23 -9 -20 q -5 -16 0 -11 q 13 3 10 19 q 8 35 9 51 q 11 66 20 75 q 30 84 51 82 q 73 80 78 70 q 84 60 83 45 z"},"n":{"x_min":0,"x_max":392,"ha":392,"o":"m 87 234 q 97 251 105 266 q 113 280 122 295 q 141 323 166 332 q 192 340 216 333 q 239 326 258 306 q 276 285 282 256 q 290 219 289 182 q 288 145 285 108 q 283 92 283 78 q 283 63 287 47 q 292 32 301 30 q 310 27 321 39 q 330 49 336 60 q 341 72 346 85 q 357 117 364 148 q 371 180 377 212 q 378 215 378 219 q 378 223 379 227 q 383 239 393 239 q 402 238 404 232 q 405 227 404 222 q 398 196 394 169 q 389 142 383 117 q 375 88 364 62 q 352 35 332 13 q 315 -5 296 -9 q 278 -13 260 -8 q 242 -4 228 8 q 213 19 205 33 q 194 52 190 77 q 185 102 184 128 q 182 153 184 178 q 185 202 188 222 q 189 232 188 248 q 186 264 181 276 q 176 288 166 291 q 157 294 144 278 q 120 249 111 212 q 97 167 90 124 q 84 80 86 33 q 87 21 86 14 q 86 7 83 4 q 80 1 73 0 q 66 0 53 0 l 1 0 q -8 0 -12 4 q -17 7 -17 18 l -17 321 q -17 338 -1 338 l 68 338 q 87 338 87 318 q 86 298 86 276 q 87 254 87 234 z"},"h":{"x_min":0,"x_max":407,"ha":407,"o":"m 405 236 q 413 234 416 230 q 418 226 417 221 q 413 199 409 176 q 405 153 399 130 q 393 108 384 86 q 374 65 360 47 q 338 18 314 8 q 291 -2 262 6 q 201 22 187 86 q 179 119 184 152 q 188 184 190 216 q 191 227 192 238 q 192 249 191 260 q 191 267 188 273 q 185 279 177 283 q 160 287 146 275 q 135 265 126 253 q 118 241 112 227 q 94 179 86 132 q 78 84 80 34 q 80 23 80 16 q 79 10 76 7 q 73 4 66 4 q 59 3 47 3 q 34 3 22 4 q 9 4 -3 3 q -18 2 -23 8 q -28 14 -29 26 q -34 103 -34 180 q -33 256 -28 331 q -24 384 -19 438 q -14 493 -2 544 q 11 596 33 642 q 55 688 93 725 q 111 739 132 746 q 153 752 174 751 q 195 750 214 742 q 234 733 248 717 q 256 709 248 714 q 240 718 224 723 q 209 728 190 728 q 171 729 156 712 q 125 675 114 631 q 101 581 96 530 q 90 480 88 429 q 85 378 84 328 q 84 277 82 227 q 89 246 100 262 q 111 279 122 296 q 139 317 162 322 q 186 328 214 326 q 255 323 272 284 q 290 246 290 206 q 290 170 290 135 q 289 100 289 64 q 289 57 290 50 q 291 42 302 38 q 312 35 320 40 q 327 46 333 54 q 353 75 362 100 q 372 125 377 151 q 380 168 385 184 q 390 201 392 225 q 393 236 405 236 z"},"z":{"x_min":0,"x_max":364,"ha":364,"o":"m 198 347 q 166 348 137 352 q 108 355 79 347 q 57 340 44 327 q 30 314 21 297 q 13 277 9 258 q 5 240 1 222 q -1 215 -3 208 q -5 202 -14 204 q -25 206 -24 213 q -23 220 -22 225 q -18 248 -12 272 q -7 296 4 316 q 18 342 42 355 q 66 368 97 370 q 132 372 166 369 q 200 366 233 364 l 264 362 q 275 361 278 355 q 280 349 274 346 q 253 330 244 306 q 234 283 228 256 q 223 230 218 203 q 214 176 204 153 q 193 130 172 114 q 152 98 115 94 q 125 95 142 88 q 159 82 177 75 q 195 68 210 64 q 226 59 232 63 q 267 86 298 112 q 330 139 344 180 q 346 188 350 203 q 354 218 355 226 q 356 232 358 235 q 361 238 369 237 q 377 235 378 230 q 378 226 377 221 q 376 189 358 156 q 341 123 318 100 q 304 86 288 74 q 271 62 253 50 q 248 46 246 42 q 245 39 248 33 q 274 -2 285 -41 q 296 -80 294 -120 q 293 -159 280 -198 q 268 -237 248 -273 q 233 -301 210 -325 q 187 -349 158 -366 q 130 -384 96 -392 q 62 -400 26 -397 q -10 -395 -34 -377 q -58 -359 -69 -330 q -93 -266 -80 -212 q -66 -157 -16 -107 q 19 -73 60 -44 q 101 -15 147 11 q 164 22 164 26 q 165 31 151 45 q 137 59 120 68 q 103 78 80 80 q 75 81 71 82 q 67 84 65 89 q 63 100 78 102 q 91 105 102 116 q 112 128 120 142 q 127 157 132 172 q 136 186 137 195 q 140 215 143 235 q 146 255 152 274 q 159 294 170 312 q 180 330 198 347 z m -59 -258 q -59 -292 -46 -322 q -32 -352 2 -363 q 37 -375 64 -368 q 92 -360 121 -334 q 138 -317 148 -297 q 159 -277 167 -255 q 214 -142 190 -26 q 185 -6 180 -4 q 174 -2 153 -14 q 127 -31 99 -48 q 71 -66 45 -84 q 0 -119 -30 -161 q -59 -203 -59 -258 z"},"B":{"x_min":0,"x_max":727,"ha":727,"o":"m 569 383 q 615 355 637 321 q 659 287 662 251 q 664 215 649 178 q 634 142 608 110 q 581 79 544 54 q 507 30 466 16 q 436 7 403 2 q 370 -3 338 0 q 305 4 276 18 q 247 32 225 60 q 218 69 212 70 q 207 71 196 65 q 151 43 104 38 q 57 34 7 48 q 11 47 33 50 q 55 52 82 58 q 109 65 136 76 q 162 87 175 103 q 195 128 208 160 q 221 191 229 225 q 237 259 240 293 q 244 327 244 358 q 245 530 235 704 q 235 710 220 708 q 204 705 184 697 q 163 689 142 677 q 122 665 112 652 q 95 630 86 602 q 78 573 80 546 q 82 520 96 500 q 109 480 136 474 l 124 468 q 112 463 109 465 q 106 467 105 469 q 82 488 71 518 q 60 548 64 581 q 68 614 88 647 q 109 680 149 704 q 201 735 259 743 q 317 751 377 749 q 417 746 458 731 q 499 716 532 692 q 566 668 588 638 q 610 608 614 575 q 617 542 598 508 q 579 475 529 444 q 516 436 504 428 q 492 421 471 416 q 500 409 524 402 q 548 394 569 383 z m 519 102 q 550 147 556 197 q 563 247 546 290 q 529 334 490 366 q 451 397 392 403 q 386 404 380 404 q 374 405 375 413 q 375 420 381 421 q 387 422 393 423 q 411 424 428 432 q 482 464 498 507 q 515 550 504 592 q 492 634 456 668 q 421 702 371 717 q 345 725 339 721 q 333 717 335 694 q 348 591 350 484 q 351 376 329 270 q 318 226 300 180 q 282 134 244 99 q 238 92 238 86 q 239 80 243 74 q 263 38 301 27 q 339 16 380 22 q 422 29 460 50 q 498 72 519 102 z"},"K":{"x_min":0,"x_max":698,"ha":698,"o":"m 313 737 q 315 659 320 582 q 325 505 323 427 l 358 468 q 372 484 382 502 q 391 521 398 540 q 406 560 412 580 q 418 599 426 619 q 435 645 450 670 q 464 695 486 715 q 518 746 558 752 q 598 759 642 749 q 655 747 654 739 q 651 725 640 729 q 607 734 589 722 q 571 709 558 687 q 544 666 537 642 q 530 619 522 596 q 502 522 447 462 q 441 456 430 450 q 420 444 409 438 q 398 433 389 428 q 380 422 378 417 q 445 398 482 339 q 500 311 507 280 q 514 250 518 218 q 520 200 520 182 q 521 163 522 145 q 523 127 526 110 q 529 92 535 76 q 546 38 574 27 q 601 16 642 34 q 647 37 653 40 q 659 43 666 34 q 671 26 664 23 q 656 20 651 16 q 624 0 594 0 q 565 -1 538 9 q 510 19 488 36 q 467 54 457 75 q 440 107 433 140 q 426 174 420 208 q 413 243 408 278 q 403 314 387 347 q 377 365 360 380 q 344 394 322 402 q 319 339 310 278 q 300 218 277 160 q 260 117 228 82 q 197 47 158 26 q 118 5 75 2 q 32 0 -7 21 q 49 16 86 30 q 124 44 148 70 q 171 97 184 133 q 198 169 206 208 q 219 269 224 330 q 228 390 228 450 q 227 509 224 568 q 220 628 218 689 q 218 700 212 707 q 205 714 191 716 q 148 719 116 708 q 85 697 64 676 q 43 656 32 628 q 22 600 21 569 q 20 554 16 547 q 12 540 8 540 q 4 539 1 544 q -2 550 -1 559 q 9 628 32 668 q 54 707 90 726 q 126 746 176 750 q 226 755 291 754 q 303 754 308 750 q 312 746 313 737 z"},"R":{"x_min":0,"x_max":747,"ha":747,"o":"m 722 -84 q 678 -105 636 -103 q 595 -101 560 -80 q 525 -59 500 -22 q 475 16 466 64 q 458 106 452 147 q 446 188 423 227 q 401 263 352 272 q 327 276 326 253 q 321 200 309 148 q 297 95 274 44 q 255 3 224 -28 q 192 -59 154 -76 q 117 -93 76 -94 q 36 -96 -1 -79 q 33 -78 58 -74 q 83 -71 102 -64 q 121 -58 136 -47 q 150 -36 163 -19 q 194 26 208 90 q 222 153 226 222 q 231 291 230 358 q 228 425 229 476 q 226 525 224 572 q 223 619 221 667 q 221 690 247 689 q 261 688 274 688 q 287 689 301 689 q 322 690 322 671 q 324 602 328 534 q 333 465 332 398 q 331 376 332 354 q 332 333 331 312 q 330 302 334 299 q 339 296 351 298 q 381 303 404 317 q 427 331 446 351 q 470 379 484 416 q 498 454 500 494 q 503 534 494 572 q 485 611 464 640 q 434 681 388 704 q 343 727 292 732 q 242 738 192 726 q 142 713 103 684 q 72 660 57 630 q 42 600 40 568 q 38 536 48 504 q 58 473 79 447 q 74 442 74 438 q 73 433 65 442 q 45 464 34 498 q 22 531 24 567 q 26 603 44 638 q 62 674 101 700 q 140 726 190 738 q 240 751 292 750 q 345 749 396 736 q 448 723 490 697 q 533 671 562 632 q 592 594 600 544 q 606 506 599 466 q 592 427 572 392 q 551 358 517 331 q 483 304 435 291 l 418 285 q 470 267 498 236 q 525 206 538 166 q 552 126 556 79 q 560 32 566 -17 q 569 -37 577 -51 q 585 -65 596 -74 q 608 -82 622 -86 q 635 -90 649 -91 q 682 -94 722 -84 z"},"T":{"x_min":0,"x_max":547,"ha":547,"o":"m 768 767 q 782 760 782 752 q 782 744 775 736 q 758 715 738 702 q 717 688 693 684 q 629 673 566 674 q 504 675 442 683 q 452 544 448 412 q 445 281 410 156 q 387 98 354 60 q 321 21 279 1 q 237 -19 187 -22 q 137 -25 81 -12 q 164 -17 214 2 q 264 20 287 57 q 326 131 341 212 q 356 293 358 376 q 360 458 354 540 q 347 622 342 698 l 231 716 q 181 724 140 717 q 98 710 68 692 q 39 674 23 647 q 7 620 8 588 q 8 556 26 521 q 44 486 84 453 q 70 448 59 453 q 15 495 -2 536 q -19 577 -14 612 q -10 648 12 678 q 34 707 68 728 q 102 748 144 757 q 187 766 231 761 q 282 756 332 751 q 382 746 432 744 q 482 742 532 744 q 581 747 629 758 q 645 761 660 769 q 674 777 684 794 q 689 808 706 799 q 721 790 736 782 q 752 775 768 767 z"},"P":{"x_min":0,"x_max":558,"ha":558,"o":"m 502 619 q 533 568 534 508 q 536 447 510 394 q 483 341 430 304 q 377 266 299 261 q 281 259 276 252 q 270 245 270 231 q 267 194 258 158 q 250 122 241 87 q 226 25 196 -18 q 167 -61 128 -84 q 89 -107 42 -112 q -5 -116 -56 -101 q -32 -101 -6 -100 q 19 -100 43 -94 q 67 -87 88 -70 q 109 -54 125 -21 q 157 40 167 108 q 177 177 177 242 q 179 339 178 435 q 177 531 171 628 q 169 650 168 661 q 168 672 172 676 q 177 681 188 680 q 200 680 223 680 q 239 680 248 680 q 256 679 260 676 q 265 672 266 664 q 267 657 267 644 q 269 556 275 470 q 281 385 273 298 q 272 287 276 284 q 280 281 291 283 q 310 286 326 294 q 343 303 357 315 q 393 345 412 390 q 430 434 432 482 q 434 531 420 578 q 406 625 376 658 q 353 683 322 697 q 291 711 257 715 q 223 719 188 714 q 154 709 124 698 q 88 685 67 662 q 46 639 36 612 q 27 584 27 556 q 27 528 32 506 q 38 484 47 471 q 56 458 65 461 l 55 448 q 38 456 25 484 q 12 513 10 549 q 8 585 20 623 q 31 661 63 688 q 111 727 174 740 q 237 753 300 743 q 362 733 416 702 q 471 670 502 619 z"},"|":{"x_min":0,"x_max":219,"ha":219,"o":"m 122 388 q 122 299 122 211 q 122 123 123 35 q 123 12 114 4 q 105 -4 82 -3 q 71 -3 62 -2 q 52 -1 45 2 q 38 5 34 12 q 30 20 30 34 q 30 212 30 389 q 30 566 28 745 q 28 758 32 765 q 37 772 44 775 q 52 778 61 778 q 70 779 80 779 q 100 780 112 773 q 123 766 123 743 q 122 653 122 566 q 122 478 122 388 z"},"t":{"x_min":0,"x_max":229,"ha":229,"o":"m 238 514 q 214 526 198 528 q 181 530 165 527 q 149 524 132 520 q 114 515 89 514 q 78 469 74 433 q 70 397 68 374 q 60 293 60 216 q 61 140 79 66 q 87 25 110 24 q 133 22 157 53 q 168 68 177 89 q 186 110 194 132 q 201 155 206 176 q 212 198 216 216 q 218 224 220 230 q 221 237 232 233 q 243 229 242 224 q 240 219 238 211 q 235 196 230 176 q 226 156 220 136 q 215 115 208 96 q 201 77 194 63 q 180 37 160 17 q 140 -3 101 -3 q 60 -5 28 12 q -3 28 -12 60 q -27 112 -32 170 q -38 227 -36 286 q -34 345 -24 404 q -14 463 3 518 q -15 523 -33 526 q -51 528 -67 533 q -83 538 -96 548 q -110 558 -120 578 q -100 562 -81 557 q -62 552 -46 552 q -29 552 -14 554 q 0 557 11 555 q 28 602 51 644 q 74 685 100 712 q 135 749 170 750 q 206 750 238 720 q 209 735 188 726 q 167 717 150 692 q 134 667 122 630 q 109 593 97 551 q 122 548 141 550 q 160 552 176 551 q 192 550 207 542 q 222 535 238 514 z"},"M":{"x_min":0,"x_max":1049,"ha":1049,"o":"m 1011 1 q 941 14 898 50 q 855 86 830 138 q 805 189 796 251 q 786 313 784 377 q 783 441 786 504 q 788 566 787 618 l 791 697 q 792 709 787 712 q 782 714 771 712 q 729 702 706 676 q 683 649 665 620 q 633 568 613 506 q 593 444 582 380 q 571 315 566 250 q 562 186 561 129 q 561 123 552 114 q 542 104 531 104 q 520 103 509 108 q 498 114 498 120 q 497 165 496 218 q 495 272 490 328 q 486 383 476 439 q 466 495 448 544 q 431 592 404 632 q 376 671 335 695 q 325 701 324 692 q 322 684 323 673 q 325 661 326 654 q 326 647 326 641 q 327 635 327 628 q 327 620 327 608 q 328 547 330 486 q 331 426 328 367 q 324 308 312 250 q 300 193 274 138 q 259 105 234 77 q 209 49 174 28 q 90 -13 -3 13 q 66 14 110 42 q 154 71 180 116 q 205 161 216 219 q 226 277 228 338 q 230 399 228 458 q 225 517 224 566 q 224 601 222 636 q 219 671 217 709 q 217 720 210 722 q 204 723 193 722 q 187 722 174 718 q 161 713 147 702 q 133 690 120 670 q 108 650 104 619 q 103 620 98 616 q 92 612 90 620 q 88 632 94 650 q 99 668 112 686 q 125 704 144 719 q 162 734 185 740 q 274 764 338 742 q 401 720 444 665 q 488 610 513 529 q 538 448 550 356 q 558 399 568 444 q 577 488 590 530 q 604 571 624 609 q 643 647 673 679 q 693 701 716 714 q 739 727 764 734 q 789 740 815 742 q 841 743 867 743 q 880 743 888 734 q 897 725 896 716 q 894 557 892 442 q 891 327 900 244 q 910 161 935 104 q 960 46 1011 1 z"},"g":{"x_min":0,"x_max":420,"ha":420,"o":"m 206 127 q 190 98 176 70 q 161 42 134 19 q 124 11 110 6 q 97 2 83 2 q 69 1 55 4 q 41 7 30 15 q -16 45 -32 85 q -47 125 -45 171 q -42 236 6 295 q 21 313 44 324 q 66 336 92 340 q 117 345 143 342 q 169 339 191 326 q 208 317 226 318 q 243 319 259 318 q 286 318 299 318 q 312 317 317 312 q 322 308 322 298 q 321 288 321 267 q 321 228 321 188 q 321 149 322 109 q 322 104 322 100 q 321 95 326 90 q 359 110 377 138 q 395 165 404 197 q 406 201 406 205 q 406 209 408 213 q 410 219 413 224 q 416 230 425 228 q 436 226 435 220 q 434 215 434 210 q 429 168 406 134 q 384 101 347 75 q 332 63 326 50 q 321 38 321 21 q 317 -61 308 -143 q 300 -225 273 -306 q 262 -335 246 -362 q 231 -389 208 -414 q 186 -438 153 -449 q 120 -460 86 -458 q 53 -456 24 -441 q -5 -426 -19 -399 q -51 -340 -44 -285 q -37 -230 -4 -176 q 28 -125 76 -86 q 123 -48 179 -15 q 194 -6 200 5 q 206 16 206 31 q 205 55 206 80 q 206 104 206 127 z m 200 -31 q 161 -58 126 -84 q 92 -110 63 -139 q -18 -223 -12 -328 q -10 -354 2 -374 q 15 -395 36 -413 q 53 -426 79 -424 q 105 -423 119 -409 q 134 -393 145 -376 q 156 -360 163 -340 q 181 -292 187 -243 q 195 -191 199 -139 q 203 -87 200 -31 z m 69 118 q 69 100 68 82 q 68 65 76 48 q 91 19 119 39 q 129 48 135 58 q 141 67 147 78 q 166 112 176 148 q 185 183 198 218 q 210 256 190 287 q 185 296 178 303 q 172 310 158 312 q 144 313 135 307 q 126 301 119 290 q 89 250 79 206 q 69 163 69 118 z"},"j":{"x_min":0,"x_max":181,"ha":181,"o":"m 92 79 q 126 100 144 128 q 161 156 167 190 l 173 223 q 175 230 178 230 q 180 230 189 229 q 199 227 200 220 q 200 213 198 208 q 193 186 186 158 q 178 131 162 113 q 154 103 146 93 q 138 83 127 75 q 99 58 92 34 q 84 9 83 -17 q 82 -83 74 -147 q 67 -211 51 -275 q 41 -318 24 -356 q 6 -395 -25 -430 q -46 -453 -77 -464 q -108 -475 -140 -474 q -172 -472 -200 -458 q -228 -444 -242 -417 q -261 -383 -266 -350 q -272 -318 -266 -287 q -261 -256 -246 -226 q -232 -196 -211 -166 q -182 -124 -142 -91 q -101 -58 -54 -29 q -40 -20 -34 -10 q -29 0 -29 15 q -29 37 -29 53 q -29 69 -29 84 q -29 98 -29 114 q -29 130 -29 152 q -29 174 -29 204 q -29 234 -29 276 q -29 295 -28 306 q -27 318 -24 324 q -21 329 -14 330 q -7 332 5 332 q 17 332 30 331 q 43 330 56 332 q 74 334 80 321 q 87 308 87 282 q 87 238 87 213 q 87 188 87 171 q 87 154 87 139 q 87 124 87 102 q 87 97 87 91 q 87 85 92 79 z m -30 -82 l -30 -67 q -31 -62 -30 -57 q -28 -52 -33 -50 q -40 -47 -44 -51 q -48 -55 -52 -58 q -67 -69 -82 -80 q -96 -90 -110 -102 q -159 -143 -195 -190 q -231 -237 -238 -300 q -243 -335 -234 -366 q -226 -396 -198 -422 q -180 -439 -154 -438 q -128 -438 -111 -421 q -91 -401 -80 -380 q -69 -359 -61 -335 q -43 -272 -39 -208 q -35 -145 -30 -82 z m 90 438 q 90 412 71 393 q 52 374 26 375 q 0 376 -18 394 q -35 413 -35 439 q -35 468 -16 488 q 3 509 29 508 q 54 507 72 486 q 90 466 90 438 z"},"i":{"x_min":0,"x_max":218,"ha":218,"o":"m -22 298 q -23 312 -18 323 q -13 334 -1 334 q 15 332 32 332 q 48 332 65 331 q 77 331 82 327 q 87 323 88 316 q 89 309 88 300 q 86 290 85 278 q 83 257 82 242 q 80 227 79 214 q 78 201 78 188 q 77 174 76 155 q 75 132 76 108 q 76 84 81 60 q 83 51 88 42 q 92 32 104 29 q 118 26 127 32 q 136 39 143 48 q 162 68 170 92 q 179 116 185 140 l 205 218 q 206 225 209 229 q 212 233 221 232 q 229 230 230 224 q 231 218 230 213 q 222 181 214 144 q 206 106 191 74 q 183 57 171 41 q 159 25 140 13 q 120 -1 96 -2 q 71 -2 50 10 q 22 25 8 48 q -5 70 -12 96 q -16 112 -18 129 q -21 146 -22 169 q -23 192 -23 223 q -23 254 -22 298 z m 107 441 q 107 415 88 396 q 69 377 43 378 q 17 379 0 398 q -18 416 -18 442 q -18 471 1 492 q 20 512 46 511 q 71 510 89 490 q 107 469 107 441 z"},"y":{"x_min":0,"x_max":387,"ha":387,"o":"m 304 126 q 334 154 352 181 q 371 208 374 244 q 374 247 376 257 q 379 268 392 268 q 400 268 400 263 q 401 258 401 253 q 399 226 389 202 q 379 178 362 155 q 357 147 352 140 q 346 132 339 127 q 314 110 308 89 q 302 68 300 41 q 298 -41 288 -122 q 278 -203 251 -280 q 241 -306 220 -330 q 199 -355 172 -372 q 144 -390 114 -398 q 84 -407 57 -402 q 30 -397 10 -376 q -11 -355 -19 -314 q -28 -257 -12 -202 q 5 -146 43 -95 q 73 -59 106 -27 q 140 5 180 34 q 202 48 199 74 q 198 90 198 106 q 199 123 199 144 q 197 112 174 89 q 151 66 122 56 q 92 47 63 54 q 34 60 19 87 q 6 107 -4 132 q -13 157 -18 181 q -23 216 -26 254 q -28 292 -25 329 q -25 340 -12 344 q 0 349 11 349 q 17 349 20 349 q 23 349 26 349 q 28 349 32 350 q 35 350 42 350 q 57 351 66 346 q 74 341 72 328 q 69 317 66 295 q 63 273 62 246 q 61 218 62 189 q 63 160 68 136 q 74 112 85 96 q 96 80 114 79 q 135 77 150 92 q 164 107 174 131 q 183 155 189 185 q 195 215 198 243 q 201 271 202 294 q 204 318 206 329 q 208 343 216 348 q 224 352 236 352 q 248 351 256 350 q 264 350 275 351 q 290 352 296 346 q 303 341 302 327 q 301 280 302 235 q 302 190 302 145 q 302 143 302 138 q 303 133 304 126 z m 197 -56 q 196 -19 196 -6 q 197 7 192 9 q 187 12 172 0 q 158 -12 142 -28 q 126 -44 112 -59 q 98 -74 95 -78 q 50 -120 29 -170 q 8 -221 13 -283 q 15 -305 22 -322 q 30 -340 47 -354 q 71 -373 91 -370 q 111 -368 126 -354 q 142 -340 153 -319 q 164 -298 169 -280 q 183 -223 189 -166 q 195 -110 197 -56 z"},"@":{"x_min":0,"x_max":833,"ha":833,"o":"m 755 366 q 754 338 751 312 q 748 285 740 258 q 731 231 716 202 q 700 172 676 137 q 653 103 610 77 q 566 51 512 34 q 458 17 398 12 q 338 6 280 14 q 222 22 172 44 q 121 67 87 107 q 58 140 41 174 q 24 209 16 244 q 7 280 6 317 q 5 354 9 392 q 17 457 38 518 q 58 580 108 634 q 166 698 248 730 q 331 761 443 751 q 506 746 554 726 q 603 705 641 670 q 695 619 725 544 q 755 469 755 366 z m 85 356 q 83 297 99 243 q 115 189 157 137 q 192 95 250 70 q 308 45 372 42 q 436 39 498 60 q 560 80 603 129 l 588 129 q 545 131 522 152 q 498 172 484 202 q 478 211 474 222 q 470 234 465 248 q 452 228 442 208 q 433 189 420 172 q 403 148 380 136 q 356 124 331 123 q 306 122 281 133 q 256 144 236 166 q 211 193 201 230 q 191 267 195 304 q 199 342 216 376 q 234 411 264 434 q 302 463 352 469 q 403 475 447 453 q 470 443 494 444 q 519 444 545 443 q 572 442 582 434 q 592 426 588 402 q 578 358 575 314 q 572 269 574 222 q 575 214 576 206 q 576 199 581 191 q 583 180 588 172 q 592 163 606 161 q 619 157 630 163 l 648 189 q 671 227 682 269 q 692 311 697 354 q 703 418 689 480 q 675 542 631 601 q 597 644 544 668 q 490 692 430 696 q 371 699 312 682 q 254 666 209 627 q 138 568 112 498 q 86 429 85 356 z m 318 234 q 318 225 319 212 q 320 198 323 183 q 325 174 330 167 q 335 160 346 157 q 357 155 366 160 q 374 165 378 172 q 450 268 456 383 q 457 399 448 414 q 440 428 415 432 q 393 435 380 424 q 367 414 359 400 q 338 362 328 322 q 319 281 318 234 z"},".":{"x_min":0,"x_max":101,"ha":101,"o":"m 46 1 q 28 0 16 14 q 4 27 4 43 q 4 60 16 72 q 29 85 46 85 q 61 86 74 73 q 86 60 86 44 q 88 27 74 14 q 61 2 46 1 z"},"p":{"x_min":0,"x_max":407,"ha":407,"o":"m 75 236 q 86 259 95 280 q 104 301 115 322 q 129 350 151 366 q 173 382 206 381 q 238 381 263 366 q 288 350 300 319 q 330 244 319 178 q 308 113 252 53 q 248 50 244 42 q 289 49 319 70 q 349 92 367 129 q 378 152 383 176 q 388 201 393 225 l 397 243 q 401 253 414 250 q 420 249 422 246 q 423 242 423 237 q 415 196 406 156 q 397 117 370 82 q 346 52 314 36 q 281 19 242 14 q 216 11 192 4 q 167 -3 141 -1 q 133 0 126 0 q 118 0 115 11 q 113 21 118 26 q 123 30 132 35 q 142 39 149 46 q 156 53 161 61 q 176 88 187 120 q 198 152 204 186 q 210 219 210 251 q 209 283 199 310 q 192 335 174 336 q 157 336 146 318 q 128 289 116 258 q 104 228 96 196 q 85 158 80 120 q 76 81 75 42 q 73 -47 63 -134 q 53 -222 31 -308 q 10 -362 -16 -394 q -41 -427 -65 -444 q -89 -462 -109 -469 q -129 -476 -139 -480 q -106 -466 -84 -430 q -62 -395 -48 -344 q -35 -294 -29 -232 q -23 -171 -22 -106 q -20 -41 -22 24 q -24 88 -27 145 q -30 202 -33 247 q -36 292 -36 318 q -36 331 -36 338 q -35 345 -32 348 q -28 351 -21 352 q -14 352 -1 352 l 51 352 q 76 352 76 329 q 75 306 75 283 q 75 260 75 236 z"},"X":{"x_min":0,"x_max":865,"ha":865,"o":"m 799 658 q 770 662 740 648 q 711 634 683 609 q 655 584 630 552 q 605 519 584 485 q 564 451 549 420 q 534 388 527 366 q 521 331 528 281 q 535 231 552 180 q 570 128 597 82 q 624 37 660 12 q 695 -14 738 -13 q 780 -12 828 30 q 831 33 832 30 q 832 28 831 24 q 830 19 828 14 q 826 8 825 6 q 819 -3 806 -12 q 793 -21 774 -28 q 756 -34 734 -38 q 712 -42 689 -40 q 646 -38 612 -26 q 577 -13 550 6 q 523 24 504 48 q 485 71 472 95 q 457 122 446 149 q 434 176 423 207 q 400 178 379 148 q 358 119 329 98 q 288 69 250 48 q 212 26 174 14 q 135 1 93 -2 q 51 -5 3 3 q 49 1 98 16 q 146 31 192 58 q 237 84 277 120 q 317 155 346 194 q 375 234 390 274 q 405 315 401 352 q 396 396 393 442 q 390 487 383 530 q 376 572 363 611 q 350 650 325 681 q 309 702 288 714 q 266 727 243 734 q 220 741 196 744 q 173 746 153 746 q 171 755 200 756 q 229 758 260 754 q 291 750 318 741 q 345 732 360 721 q 398 694 421 670 q 444 646 459 621 q 474 596 484 567 q 495 538 507 501 q 538 549 568 592 q 599 635 633 668 q 667 702 708 724 q 748 747 799 756 q 816 759 818 744 q 821 729 816 710 q 812 691 806 674 q 799 658 799 658 z"},"*":{"x_min":0,"x_max":196,"ha":196,"o":"m 144 594 q 148 591 154 591 q 160 591 166 591 q 171 591 175 588 q 179 585 179 576 q 180 567 176 564 q 172 562 166 562 q 161 561 154 561 q 148 561 144 558 q 143 552 148 548 q 152 543 156 538 q 161 534 162 529 q 163 524 155 517 q 149 511 144 512 q 139 513 134 516 q 130 520 126 524 q 121 528 116 529 q 111 526 110 520 q 110 514 110 508 q 109 502 106 498 q 104 493 95 493 q 86 493 84 498 q 81 502 80 508 q 80 513 80 519 q 79 525 75 528 q 69 528 64 524 q 60 520 56 516 q 51 513 45 512 q 39 512 32 520 q 26 526 28 530 q 29 535 33 539 q 37 543 42 547 q 46 551 46 557 q 43 561 37 561 q 31 561 25 562 q 19 562 15 564 q 11 567 11 577 q 11 585 16 588 q 20 590 26 590 q 31 590 37 590 q 43 591 46 594 q 46 600 42 604 q 37 609 33 614 q 29 618 28 624 q 28 629 36 636 q 43 642 48 641 q 52 640 56 636 q 61 631 65 626 q 69 622 75 622 q 79 625 80 632 q 80 638 80 644 q 81 650 84 654 q 87 658 97 657 q 104 657 106 653 q 109 649 110 644 q 110 639 110 633 q 110 627 113 623 q 119 622 124 626 q 129 631 134 636 q 139 640 144 640 q 150 641 157 632 q 163 626 162 622 q 160 617 156 613 q 153 609 148 604 q 144 600 144 594 z"},"Y":{"x_min":0,"x_max":661,"ha":661,"o":"m 600 595 q 600 527 600 460 q 601 394 596 327 q 588 236 575 148 q 562 61 527 -26 q 510 -68 487 -107 q 464 -146 425 -179 q 373 -224 319 -238 q 265 -251 216 -240 q 168 -230 130 -198 q 93 -167 76 -121 q 58 -75 64 -19 q 70 37 109 97 q 123 119 144 137 q 166 155 191 168 q 216 180 243 185 q 270 190 294 187 q 271 185 250 178 q 229 171 209 161 q 169 141 142 110 q 116 78 102 41 q 89 4 88 -35 q 87 -74 100 -108 q 112 -143 138 -170 q 163 -197 202 -209 q 245 -219 278 -214 q 311 -210 336 -193 q 362 -176 382 -148 q 402 -121 419 -85 q 442 -34 454 18 q 467 69 475 122 q 487 211 493 300 q 495 345 498 389 q 500 433 497 481 q 491 438 479 398 q 467 358 450 320 q 439 294 422 271 q 404 248 378 230 q 356 214 327 208 q 298 203 269 206 q 240 209 213 222 q 186 234 168 254 q 148 276 140 300 q 132 325 128 351 q 120 396 121 440 q 122 484 125 526 q 128 569 129 611 q 130 653 122 694 q 118 711 108 720 q 99 729 86 732 q 72 735 55 734 q 38 734 20 733 q 42 743 66 748 q 91 753 114 750 q 136 747 156 736 q 176 724 191 701 q 205 681 211 659 q 217 637 219 613 q 222 573 220 530 q 217 488 214 446 q 212 403 213 361 q 214 319 225 280 q 231 259 244 245 q 258 231 277 226 q 296 221 318 225 q 340 229 361 243 q 401 270 423 316 q 448 367 460 421 q 473 475 480 531 q 487 581 488 630 q 490 679 489 730 q 489 742 495 746 q 501 751 516 750 q 528 749 541 749 q 554 749 567 749 q 591 749 595 746 q 599 743 599 724 q 599 692 600 660 q 600 627 600 595 z"},"c":{"x_min":0,"x_max":299,"ha":299,"o":"m 194 53 q 224 75 242 103 q 260 131 269 163 q 273 175 276 188 q 278 202 281 216 q 282 222 286 228 q 289 234 300 232 q 311 230 310 224 q 310 218 310 213 q 301 173 288 135 q 274 97 244 65 q 215 34 178 16 q 142 -2 90 3 q 64 6 38 18 q 13 31 -8 50 q -29 68 -42 92 q -56 115 -58 139 q -63 190 -44 231 q -24 272 18 306 q 30 317 50 324 q 71 332 94 335 q 116 338 138 337 q 160 336 176 330 q 196 323 206 310 q 216 298 221 281 q 222 277 222 273 q 221 269 214 267 q 201 263 196 274 q 196 275 195 276 q 172 310 148 312 q 124 313 95 281 q 77 261 66 230 q 55 198 53 165 q 51 132 58 101 q 64 70 82 52 q 99 33 126 31 q 154 29 194 53 z"},"!":{"x_min":0,"x_max":185,"ha":185,"o":"m 21 676 q 21 683 21 688 q 21 694 19 699 q 19 775 107 750 q 121 747 122 740 q 124 734 124 724 q 116 618 110 520 q 103 422 98 324 q 94 290 92 255 q 91 220 90 185 q 88 176 84 169 q 79 162 65 162 q 46 162 41 169 q 36 176 36 185 l 36 201 q 32 319 30 438 q 27 557 19 676 z m 64 23 q 48 23 35 36 q 22 49 21 66 q 21 83 34 96 q 47 109 64 109 q 80 110 92 97 q 105 84 105 67 q 106 59 102 51 q 97 43 90 37 q 84 31 77 28 q 70 24 64 23 z"},"/":{"x_min":0,"x_max":362,"ha":362,"o":"m 307 753 q 313 751 320 747 q 328 743 337 739 q 362 733 352 702 q 280 531 212 362 q 145 193 75 20 q 69 5 62 2 q 55 -2 48 0 q 41 1 34 5 q 27 9 20 10 q 4 13 3 23 q 2 33 7 49 q 30 101 50 153 q 71 205 92 256 q 140 374 187 492 q 234 609 282 727 q 285 735 288 744 q 292 753 307 753 z"},"[":{"x_min":0,"x_max":292,"ha":292,"o":"m 32 377 q 32 481 32 584 q 32 686 31 789 q 31 820 40 830 q 48 840 69 838 q 114 837 157 838 q 200 838 243 838 q 251 838 258 838 q 266 838 272 835 q 277 832 280 825 q 283 818 283 804 q 283 789 280 781 q 277 773 271 770 q 265 766 258 766 q 250 766 242 766 q 219 766 197 766 q 175 765 153 766 q 138 768 130 762 q 123 755 123 735 q 124 373 123 13 q 123 -6 130 -12 q 138 -19 153 -19 q 178 -18 204 -18 q 229 -19 255 -18 q 271 -18 277 -27 q 283 -36 283 -56 q 283 -76 277 -84 q 271 -91 254 -91 q 160 -89 66 -91 q 43 -93 38 -82 q 32 -70 32 -47 z"},"6":{"x_min":0,"x_max":424,"ha":424,"o":"m 92 271 q 99 315 122 346 q 144 377 174 393 q 205 409 239 410 q 273 411 303 395 q 333 379 354 346 q 375 312 380 260 q 388 212 378 160 q 367 109 338 70 q 310 30 264 10 q 218 -9 156 8 q 106 22 74 57 q 41 92 24 143 q -3 214 -2 296 q -2 378 21 456 q 44 535 88 602 q 131 668 191 707 q 220 725 252 735 q 283 745 315 748 q 322 750 329 749 q 336 748 337 737 q 338 729 333 726 q 328 723 321 721 q 270 713 235 680 q 200 646 176 601 q 134 534 113 448 q 92 361 92 271 z m 211 32 q 256 30 286 52 q 316 74 336 114 q 353 150 358 187 q 363 224 355 265 q 344 313 320 338 q 297 364 268 370 q 240 377 210 366 q 179 356 154 333 q 128 310 111 276 q 94 243 92 203 l 92 194 q 98 165 104 138 q 109 110 123 87 q 140 60 161 44 q 182 28 211 32 z"},"r":{"x_min":0,"x_max":360,"ha":360,"o":"m 32 342 l 15 229 q 14 221 12 214 q 11 208 0 209 q -12 210 -13 214 q -14 218 -13 225 q -7 261 -2 306 q 4 351 6 388 q 8 403 14 410 q 20 417 36 415 q 45 414 54 414 q 63 415 72 415 q 88 415 96 414 q 105 414 110 410 q 116 407 119 399 q 122 391 127 377 q 132 360 143 353 q 154 346 170 345 q 182 344 194 342 q 207 341 220 340 q 231 340 235 335 q 239 330 238 319 q 232 262 226 207 q 221 152 226 95 q 227 85 228 75 q 229 65 232 55 q 239 34 253 30 q 267 27 284 44 q 305 66 316 92 q 326 119 332 147 q 337 168 340 188 q 344 208 348 229 q 349 237 353 241 q 357 245 367 243 q 375 242 376 236 q 377 231 375 225 q 367 183 358 140 q 350 98 328 59 q 314 33 294 17 q 274 1 242 2 q 211 3 190 18 q 168 33 154 60 q 139 89 134 119 q 128 149 126 180 q 124 205 124 230 q 125 256 126 281 q 126 290 122 297 q 119 304 108 306 q 87 311 68 320 q 50 329 32 342 z"},"2":{"x_min":0,"x_max":473,"ha":473,"o":"m 242 748 q 302 748 347 723 q 392 698 417 658 q 442 617 444 564 q 445 512 419 456 q 396 408 360 371 q 323 334 283 299 q 248 268 215 237 q 182 206 153 168 q 146 158 138 148 q 131 138 126 127 q 115 107 110 96 q 106 84 109 77 q 112 70 124 66 q 136 63 158 59 q 178 54 198 49 q 217 44 236 40 q 246 38 256 36 q 265 33 275 33 q 285 33 294 37 q 303 41 312 52 q 319 60 334 59 q 348 58 360 55 q 368 53 368 47 q 368 41 368 35 q 366 21 358 12 q 349 4 336 1 q 308 -9 274 1 q 248 8 222 16 q 195 24 167 30 q 157 31 147 33 q 137 35 128 34 q 118 34 110 28 q 102 23 96 10 q 92 6 88 4 q 84 2 81 4 q 74 6 73 10 q 72 14 70 19 q 69 43 73 66 q 77 88 82 110 q 99 172 136 223 q 172 274 216 322 q 243 351 270 382 q 297 412 315 449 q 348 514 341 586 q 336 629 314 661 q 292 693 250 708 q 229 715 206 714 q 184 713 162 706 q 139 699 120 686 q 100 672 85 654 q 61 626 48 592 q 36 559 33 522 q 32 517 32 511 q 32 505 31 499 q 31 493 28 488 q 25 482 17 482 q 8 482 6 488 q 5 494 3 502 q 1 552 19 598 q 37 643 70 676 q 102 710 146 730 q 191 749 242 748 z"},"{":{"x_min":0,"x_max":210,"ha":210,"o":"m 5 641 q 7 664 8 686 q 9 708 16 729 q 27 764 54 785 q 80 806 108 804 q 113 802 118 801 q 123 800 125 793 q 125 789 124 785 q 124 781 122 780 q 112 774 108 766 q 103 758 101 749 q 99 740 100 730 q 100 721 101 712 q 103 680 106 648 q 109 616 111 584 q 112 559 112 534 q 113 508 110 484 q 106 460 97 437 q 88 414 70 395 q 64 390 65 385 q 66 380 71 375 q 97 345 104 308 q 112 270 113 227 q 114 177 112 126 q 110 76 108 23 q 106 7 110 -10 q 113 -27 128 -40 q 132 -42 136 -45 q 141 -48 139 -56 q 139 -64 132 -65 q 126 -66 119 -66 q 80 -70 50 -38 q 21 -5 15 48 q 9 102 14 154 q 19 207 23 261 q 23 276 26 292 q 28 307 28 322 q 28 337 24 350 q 19 364 7 376 q 4 381 4 387 q 4 393 7 397 q 21 411 22 428 q 22 446 20 463 q 17 508 12 553 q 7 598 5 641 z"},"9":{"x_min":0,"x_max":426,"ha":426,"o":"m 295 479 q 288 435 266 404 q 243 373 212 357 q 182 341 148 340 q 114 339 84 355 q 54 371 33 404 q 12 438 7 490 q -1 538 10 590 q 20 641 48 680 q 77 720 123 739 q 169 758 231 742 q 281 728 314 693 q 346 658 363 607 q 390 536 390 454 q 389 372 366 294 q 343 215 300 148 q 256 82 196 43 q 167 25 136 15 q 104 5 72 2 q 65 0 58 1 q 51 2 50 13 q 49 21 54 24 q 59 27 66 29 q 117 37 152 70 q 187 104 211 149 q 253 216 274 302 q 295 389 295 479 z m 176 718 q 131 720 101 698 q 71 676 51 636 q 34 600 29 563 q 24 526 32 485 q 43 436 66 411 q 90 386 118 380 q 147 373 178 384 q 208 394 234 417 q 259 440 276 474 q 293 507 295 547 l 295 556 q 289 585 284 612 q 278 640 264 663 q 247 690 226 706 q 205 722 176 718 z"}," ":{"x_min":0,"x_max":250,"ha":250,"o":""},"I":{"x_min":0,"x_max":389,"ha":389,"o":"m 329 736 q 332 662 336 588 q 341 514 340 441 q 339 368 329 297 q 319 226 292 159 q 275 116 242 81 q 209 46 168 25 q 128 4 84 2 q 39 -1 -1 20 q 57 15 95 29 q 133 43 158 70 q 183 96 196 132 q 210 168 218 207 q 232 268 236 328 q 241 389 240 448 q 240 508 236 568 q 233 627 231 688 q 231 699 224 706 q 218 713 203 715 q 159 719 126 708 q 94 697 72 676 q 51 656 40 628 q 28 599 27 568 q 26 553 22 546 q 18 539 14 538 q 10 538 7 544 q 4 549 5 558 q 16 627 40 666 q 63 706 100 726 q 137 745 188 750 q 240 754 307 753 q 319 753 324 749 q 328 745 329 736 z"},"H":{"x_min":0,"x_max":767,"ha":767,"o":"m 725 6 q 725 6 716 16 q 707 25 692 44 q 678 62 660 91 q 643 120 628 158 q 612 195 600 242 q 589 290 586 347 q 586 348 572 348 q 559 348 538 348 q 518 348 493 348 q 468 347 444 346 q 421 345 402 344 q 384 343 376 341 q 371 293 356 242 q 342 191 316 148 q 260 55 174 22 q 88 -12 -9 11 q 50 15 82 21 q 113 27 137 41 q 173 63 198 100 q 224 137 240 182 q 256 227 264 278 q 273 328 274 378 q 276 428 272 474 q 268 519 260 555 q 253 583 241 613 q 229 643 210 668 q 192 692 167 708 q 142 724 111 724 q 74 724 52 704 q 31 685 23 658 q 15 631 18 602 q 20 573 31 554 q 32 551 30 548 q 28 545 25 543 q 22 541 18 541 q 15 541 14 544 q 0 576 0 610 q -1 643 10 672 q 21 701 42 722 q 64 743 94 750 q 125 758 164 748 q 202 739 246 707 q 287 677 312 638 q 338 600 352 557 q 367 514 372 468 q 376 422 375 378 q 375 374 390 372 q 406 370 430 370 q 453 370 480 371 q 508 372 531 374 q 554 376 570 378 q 585 381 585 385 q 582 412 580 454 q 579 495 578 543 q 577 591 576 640 q 575 689 575 731 q 575 743 592 748 q 610 753 631 752 q 652 752 669 746 q 686 739 685 728 q 681 674 676 612 q 672 551 670 486 q 667 421 668 356 q 668 290 674 228 q 679 166 692 110 q 704 53 725 6 z"},"4":{"x_min":0,"x_max":444,"ha":444,"o":"m 301 474 q 303 532 299 587 q 295 642 293 698 q 293 720 300 730 q 307 741 331 741 q 355 740 368 739 q 381 738 386 732 q 392 726 392 712 q 393 698 392 673 q 387 593 382 516 q 376 438 371 359 q 371 346 370 333 q 370 320 388 311 q 393 306 393 298 q 393 291 388 287 q 368 273 366 254 q 365 236 364 218 q 362 170 361 124 q 360 79 359 34 q 357 21 355 10 q 353 -2 335 -2 q 318 -3 314 8 q 311 19 309 32 q 308 88 306 143 q 305 198 306 254 q 308 279 298 288 q 288 297 264 295 q 241 295 210 296 q 178 298 145 298 q 112 298 82 294 q 51 290 32 277 q 26 275 21 272 q 16 269 9 274 q 2 278 2 282 q 2 287 4 294 q 25 395 26 497 q 28 599 30 702 q 30 713 30 728 q 30 742 44 746 q 62 749 83 749 q 104 749 123 739 q 130 735 130 726 q 130 718 130 710 q 128 616 110 527 q 93 438 56 353 q 45 327 48 322 q 52 318 78 321 q 178 333 276 327 q 291 325 296 331 q 301 337 301 352 z"},"~":{"x_min":0,"x_max":399,"ha":399,"o":"m 1 236 q 0 235 3 248 q 6 260 14 278 q 22 296 36 314 q 50 333 70 343 q 91 353 120 352 q 148 350 184 327 q 180 327 192 318 q 205 308 230 302 q 255 297 290 302 q 325 308 366 339 q 366 337 359 325 q 352 313 339 298 q 326 282 308 266 q 290 251 268 242 q 246 233 220 234 q 194 235 166 254 q 140 271 120 282 q 101 294 83 295 q 65 296 46 282 q 27 269 1 236 z"},"D":{"x_min":0,"x_max":735,"ha":735,"o":"m 695 495 q 720 397 705 306 q 690 215 642 146 q 593 77 514 37 q 436 -3 335 2 q 293 4 266 21 q 239 38 219 65 q 214 75 208 76 q 203 76 192 70 q 149 46 102 40 q 55 34 4 49 q 3 50 3 50 q 52 46 86 56 q 121 67 144 88 q 167 109 181 138 q 195 168 204 202 q 212 237 216 274 q 221 310 226 346 q 236 437 235 534 q 234 630 233 716 q 191 711 158 694 q 124 677 106 647 q 89 617 92 575 q 95 533 127 480 q 126 479 121 472 q 116 466 113 472 q 75 547 78 601 q 80 655 112 688 q 144 722 200 736 q 256 751 325 748 q 382 745 441 728 q 500 711 551 680 q 602 648 640 602 q 678 556 695 495 z m 319 705 q 322 644 326 565 q 330 486 326 404 q 321 322 302 244 q 282 165 237 104 q 234 100 232 97 q 231 94 233 89 q 244 65 263 48 q 282 32 314 27 q 387 25 442 52 q 497 79 534 126 q 570 172 588 232 q 606 292 606 356 q 606 419 588 481 q 569 543 533 593 q 497 643 443 676 q 389 708 317 713 q 319 709 319 705 z"},"^":{"x_min":0,"x_max":414,"ha":414,"o":"m 344 412 q 338 412 333 417 q 328 422 323 427 q 294 457 266 485 q 237 513 210 545 q 194 562 184 560 q 174 558 162 542 q 136 509 109 480 q 82 451 54 420 q 43 406 34 405 q 26 404 15 418 q 11 423 6 428 q 0 433 -3 438 q -6 443 -5 450 q -4 457 5 466 q 46 511 84 556 q 123 600 165 645 q 175 657 183 658 q 191 658 203 647 q 245 602 286 560 q 328 517 372 473 q 377 468 383 463 q 389 458 384 448 q 376 436 366 426 q 357 417 344 412 z"},"0":{"x_min":0,"x_max":598,"ha":598,"o":"m 528 394 q 526 325 513 260 q 500 194 470 131 q 433 57 379 26 q 325 -5 268 -4 q 211 -2 159 27 q 107 56 76 103 q 28 172 12 248 q -5 324 1 408 q 8 469 25 526 q 42 583 77 634 q 122 700 183 730 q 244 759 319 753 q 360 749 391 730 q 422 711 445 682 q 468 653 484 617 q 499 581 508 542 q 518 504 522 466 q 527 427 528 394 z m 487 395 q 485 439 478 488 q 471 538 454 582 q 437 626 408 660 q 380 695 336 710 q 279 729 232 706 q 186 682 152 622 q 125 571 112 514 q 99 457 94 398 q 89 327 98 258 q 106 190 136 126 q 165 69 204 46 q 244 22 301 32 q 346 40 376 68 q 405 95 427 137 q 461 196 472 261 q 484 326 487 395 z"},"F":{"x_min":0,"x_max":549,"ha":549,"o":"m 532 384 q 538 380 536 376 q 535 372 533 368 q 524 351 500 344 q 477 337 455 342 q 430 348 405 355 q 380 362 354 364 q 353 307 346 252 q 339 197 322 137 q 301 81 268 44 q 234 8 192 -12 q 150 -31 100 -33 q 51 -35 -3 -22 q 76 -27 124 -9 q 173 9 194 45 q 225 109 239 177 q 253 245 256 316 q 259 386 254 457 q 250 528 245 597 q 243 616 242 626 q 242 635 247 638 q 252 642 264 642 q 277 642 302 642 q 318 642 327 642 q 336 642 340 639 q 345 636 346 629 q 348 622 348 610 q 350 549 352 494 q 355 440 354 386 q 381 383 406 376 q 432 369 458 364 q 473 362 488 364 q 502 365 511 379 q 518 390 532 384 z m 733 720 q 746 714 746 706 q 745 699 738 691 q 723 671 704 658 q 685 646 663 643 q 608 634 554 634 q 500 635 446 640 q 392 646 339 655 q 286 664 234 673 q 188 680 150 674 q 112 667 84 650 q 57 633 42 608 q 27 583 27 554 q 27 524 44 492 q 61 459 97 428 q 85 423 74 428 q 33 467 18 505 q 2 543 6 576 q 9 610 30 638 q 50 665 82 684 q 113 702 152 710 q 192 719 234 715 q 328 704 420 698 q 513 692 603 712 q 617 715 631 722 q 645 728 654 745 q 657 753 662 754 q 668 754 674 750 q 701 735 733 720 z"},"`":{"x_min":0,"x_max":125,"ha":125,"o":"m 61 540 q 58 544 47 560 q 36 576 26 594 q 15 611 8 625 q 1 639 5 640 q 19 644 38 644 q 56 644 73 644 q 74 644 81 624 q 88 603 96 578 q 103 553 109 532 q 115 511 114 510 q 114 509 106 513 q 98 517 89 522 q 80 527 72 532 q 63 538 61 540 z"},"k":{"x_min":0,"x_max":418,"ha":418,"o":"m 422 228 q 431 227 432 224 q 434 220 432 215 q 429 202 426 182 q 423 162 418 140 q 414 119 408 98 q 401 76 391 59 q 366 16 330 6 q 295 -3 241 11 q 216 18 205 36 q 194 54 188 76 q 183 92 179 110 q 175 128 154 139 q 146 144 148 152 q 150 160 164 164 q 202 174 220 198 q 238 222 246 252 q 248 263 246 274 q 243 285 231 292 q 217 300 204 295 q 192 290 181 282 q 144 254 130 218 q 115 181 106 140 q 94 80 91 20 q 91 2 69 2 q 34 3 0 2 q -20 2 -21 20 q -27 148 -23 274 q -19 400 7 527 q 15 575 34 620 q 54 664 87 702 q 103 722 130 735 q 156 748 184 750 q 211 752 234 742 q 258 731 269 704 q 234 727 210 726 q 186 726 170 712 q 153 697 142 672 q 132 648 125 624 q 111 571 106 518 q 101 466 96 411 q 94 369 92 324 q 91 278 91 234 l 91 205 q 102 226 116 246 q 130 267 147 287 q 158 300 175 308 q 192 317 212 321 q 232 325 252 323 q 272 321 289 314 q 319 298 332 268 q 345 238 333 210 q 315 173 274 158 q 267 155 262 152 q 257 148 265 140 q 283 122 288 100 q 293 78 296 56 q 297 48 299 40 q 301 33 312 31 q 323 29 331 32 q 339 36 345 42 q 365 62 375 86 q 385 109 392 134 q 397 152 402 176 q 407 200 410 220 q 412 226 413 228 q 414 229 422 228 z"},"u":{"x_min":0,"x_max":444,"ha":444,"o":"m 210 128 q 199 105 192 82 q 184 59 168 41 q 154 23 134 14 q 115 6 94 6 q 74 6 54 14 q 35 23 21 41 q 1 66 -7 94 q -15 123 -17 152 q -23 197 -22 240 q -22 283 -19 328 q -16 348 4 348 q 19 347 35 346 q 51 345 66 345 q 83 346 89 338 q 95 331 93 315 q 85 264 81 214 q 77 165 78 114 q 79 101 80 88 q 82 74 86 62 q 92 39 108 34 q 123 30 141 48 q 153 60 160 74 q 167 89 172 106 q 189 157 195 209 q 201 261 204 315 q 205 327 206 334 q 207 340 210 344 q 214 347 221 348 q 228 348 241 348 q 252 347 264 346 q 277 344 289 345 q 307 346 313 338 q 319 330 316 315 q 310 275 308 236 q 306 196 302 156 q 300 133 302 112 q 305 90 309 67 q 311 56 315 46 q 319 37 333 35 q 346 34 354 40 q 362 47 369 55 q 387 78 397 104 q 407 129 413 156 l 428 235 q 432 251 446 247 q 454 246 455 240 q 456 235 454 230 q 446 192 439 154 q 432 115 415 77 q 397 38 373 21 q 349 4 317 6 q 282 8 258 30 q 234 52 221 90 z"},"]":{"x_min":0,"x_max":286,"ha":286,"o":"m 270 377 l 270 -47 q 270 -70 264 -82 q 259 -93 236 -91 q 142 -89 48 -91 q 31 -91 25 -84 q 19 -76 19 -56 q 19 -36 25 -27 q 31 -18 47 -18 q 73 -19 98 -18 q 124 -18 149 -19 q 164 -19 172 -12 q 179 -6 179 13 q 178 373 179 735 q 179 755 172 762 q 164 768 149 766 q 127 765 105 766 q 83 766 60 766 q 52 766 44 766 q 37 766 31 770 q 25 773 22 781 q 19 789 19 804 q 19 818 22 825 q 25 832 30 835 q 36 838 44 838 q 51 838 59 838 q 102 838 145 838 q 188 837 233 838 q 254 840 262 830 q 271 820 271 789 q 270 686 270 584 q 270 481 270 377 z"},"U":{"x_min":0,"x_max":753,"ha":753,"o":"m 700 -1 q 662 -1 637 26 q 612 53 596 90 q 580 128 572 168 q 563 208 558 235 q 547 192 531 154 q 515 115 486 77 q 458 43 417 20 q 376 -3 326 -2 q 269 -1 231 24 q 193 48 167 90 q 147 122 138 156 q 128 190 124 226 q 119 272 118 318 q 118 365 120 411 q 121 457 123 503 q 125 549 124 595 q 123 625 116 652 q 110 679 96 700 q 81 721 57 734 q 33 746 -1 747 q 26 754 54 754 q 81 755 106 748 q 132 740 153 724 q 174 707 187 679 q 204 643 211 598 q 218 553 220 503 q 221 453 219 400 q 217 347 218 295 q 218 243 222 194 q 226 146 239 104 q 250 70 273 54 q 296 39 323 38 q 350 36 378 47 q 405 58 426 77 q 458 107 477 145 q 496 183 506 224 q 516 265 520 308 q 524 350 527 389 q 531 470 531 545 q 531 620 533 703 q 533 718 533 728 q 533 738 538 744 q 542 750 552 752 q 563 754 584 753 q 606 752 618 750 q 631 749 637 744 q 643 740 644 730 q 644 721 643 703 q 642 684 639 644 q 636 603 634 550 q 631 497 629 436 q 627 374 628 313 q 629 252 632 195 q 636 138 644 94 q 652 51 666 25 q 680 -1 700 -1 z"},"o":{"x_min":0,"x_max":398,"ha":398,"o":"m 120 260 q 139 299 164 317 q 189 335 214 337 q 238 339 258 326 q 279 314 290 292 q 314 238 311 184 q 308 131 291 78 l 282 58 q 288 52 298 55 q 307 58 316 66 q 326 73 334 82 q 342 92 347 100 q 358 120 368 142 q 378 165 383 188 q 385 195 386 205 q 387 215 389 222 q 391 228 396 228 q 400 227 405 227 q 415 226 412 214 q 405 172 393 130 q 381 89 349 55 q 334 40 318 31 q 301 22 281 20 q 267 18 258 13 q 249 8 238 0 q 215 -20 189 -34 q 163 -48 130 -46 q 80 -42 46 -16 q 13 9 -7 53 q -39 125 -29 195 q -19 265 23 334 q 41 362 62 337 l 114 281 q 121 272 120 260 z m 282 194 q 283 223 277 249 q 271 275 250 298 q 236 312 216 314 q 196 315 182 302 q 155 281 148 252 q 127 170 166 100 q 182 68 217 54 q 231 49 240 52 q 249 55 256 68 q 271 98 276 129 q 281 160 282 194 z m 120 260 q 115 255 110 252 q 106 248 103 243 q 76 198 68 150 q 61 103 75 53 q 81 31 94 16 q 108 2 126 -4 q 144 -11 164 -8 q 185 -6 203 6 q 213 12 214 17 q 216 22 202 28 q 168 45 150 72 q 133 99 124 132 q 104 199 120 260 z"},"N":{"x_min":0,"x_max":742,"ha":742,"o":"m 905 734 q 852 730 816 704 q 779 677 754 640 q 728 602 713 558 q 698 515 689 477 q 671 405 666 332 q 660 260 660 187 q 661 149 660 110 q 660 71 662 32 q 662 19 656 14 q 650 9 633 10 q 607 11 582 10 q 562 10 562 26 q 561 56 560 86 q 560 116 558 146 q 552 234 537 318 q 522 403 485 487 q 460 543 424 587 q 387 631 331 653 q 311 660 312 644 q 317 581 321 519 q 325 457 324 395 q 322 337 314 280 q 307 223 287 166 q 272 124 245 90 q 218 56 171 31 q 132 11 88 8 q 44 5 -1 16 q 67 12 110 38 q 153 65 178 109 q 203 153 213 210 q 223 268 225 326 q 227 385 224 440 q 221 495 221 534 q 220 563 218 591 q 216 619 214 648 q 213 659 207 660 q 201 661 190 658 q 157 651 137 632 q 117 614 106 589 q 96 564 93 536 q 90 508 91 483 q 91 478 88 474 q 84 471 80 471 q 76 471 72 475 q 69 479 69 487 q 68 512 72 540 q 75 569 86 596 q 97 622 118 644 q 138 666 171 680 q 230 705 282 699 q 334 693 377 666 q 420 639 454 596 q 488 553 512 503 q 537 453 552 401 q 567 349 571 305 q 579 378 592 444 q 606 510 641 578 q 682 652 752 696 q 822 739 910 743 q 929 745 926 740 q 922 736 905 734 z"},"+":{"x_min":0,"x_max":254,"ha":254,"o":"m 212 233 q 184 234 172 233 q 159 232 155 226 q 151 220 152 208 q 154 197 154 178 q 154 167 146 162 q 138 156 128 156 q 118 156 109 162 q 100 167 99 178 q 98 193 99 204 q 100 215 96 222 q 93 228 82 230 q 71 233 46 231 q 34 228 26 236 q 18 245 16 256 q 15 267 22 276 q 28 285 45 284 q 54 283 64 283 q 73 283 80 284 q 88 284 93 287 q 98 290 98 295 q 98 315 98 329 q 98 343 100 352 q 103 361 110 364 q 117 367 131 366 q 147 366 152 358 q 156 350 156 338 q 155 327 154 314 q 153 301 160 290 q 162 283 177 283 q 192 283 207 284 q 218 285 224 277 q 229 269 230 260 q 231 250 226 242 q 222 233 212 233 z"},"G":{"x_min":0,"x_max":691,"ha":691,"o":"m 438 136 q 402 103 360 88 q 318 74 276 74 q 234 73 193 86 q 152 99 118 120 q 84 142 59 171 q 34 200 23 232 q 5 284 -2 334 q -10 384 1 437 q 3 446 1 453 q -1 460 -12 465 q -41 480 -64 509 q -88 538 -96 570 q -104 603 -90 634 q -77 666 -30 687 q -24 690 -23 688 q -22 686 -28 680 q -56 665 -69 646 q -82 627 -84 608 q -85 588 -78 568 q -71 549 -60 533 q -48 517 -34 505 q -19 493 -7 489 q 7 484 10 486 q 12 489 15 497 q 33 541 57 582 q 81 622 121 656 q 183 709 258 732 q 332 756 423 745 q 470 739 498 711 q 527 683 530 645 q 534 597 517 560 q 500 524 468 498 q 437 472 395 456 q 353 439 308 430 q 264 421 220 419 q 176 417 141 420 q 118 421 112 418 q 107 416 104 397 q 98 354 100 312 q 101 269 115 226 q 123 199 140 176 q 157 152 180 132 q 200 115 225 110 q 250 104 278 103 q 370 102 431 163 q 470 203 490 248 q 509 293 517 342 l 525 407 q 526 424 549 424 q 579 422 610 424 q 633 424 633 406 q 633 349 632 278 q 632 208 622 136 q 613 64 592 -2 q 570 -68 528 -116 q 487 -163 421 -186 q 355 -209 258 -194 q 324 -199 374 -176 q 425 -153 459 -98 q 493 -42 510 47 q 528 136 528 263 q 511 227 490 196 q 468 164 438 136 z m 116 458 q 112 446 130 443 q 179 433 240 438 q 302 444 358 466 q 415 487 456 525 q 497 563 506 618 q 509 639 503 658 q 497 676 482 691 q 468 706 448 716 q 427 725 402 727 q 322 733 264 690 q 231 667 208 640 q 185 613 168 583 q 150 553 138 522 q 126 490 116 458 z"},"q":{"x_min":0,"x_max":440,"ha":440,"o":"m 445 -496 q 406 -509 375 -503 q 344 -497 320 -478 q 295 -458 276 -429 q 258 -400 245 -367 q 232 -334 224 -300 q 216 -267 212 -239 q 198 -152 196 -65 q 194 22 192 110 q 181 86 171 65 q 150 27 116 7 q 104 -1 92 -2 q 79 -2 67 3 q 22 18 -2 50 q -25 81 -33 124 q -53 231 9 324 q 21 342 42 355 q 62 368 85 375 q 108 382 132 381 q 156 380 175 370 q 197 358 218 355 q 239 352 261 352 q 283 352 295 351 q 307 350 312 344 q 317 339 318 328 q 318 316 317 294 l 307 53 q 307 48 306 44 q 306 40 311 37 q 316 35 320 38 q 324 41 327 43 q 362 63 382 92 q 402 122 413 157 q 418 177 422 196 q 425 216 429 236 q 431 244 434 248 q 438 252 446 250 q 454 250 456 244 q 458 239 456 234 q 452 204 446 175 q 439 146 428 120 q 417 93 398 69 q 380 45 352 26 q 329 10 318 -8 q 308 -27 308 -48 l 309 -49 q 309 -50 310 -50 q 307 -127 310 -202 q 312 -277 325 -352 q 331 -384 338 -408 q 344 -433 356 -451 q 369 -469 390 -480 q 411 -492 445 -496 z m 197 243 q 209 278 193 313 q 179 342 157 344 q 135 345 118 318 q 104 294 94 259 q 83 224 77 187 q 71 150 71 115 q 71 80 79 56 q 94 14 124 47 q 135 58 142 72 q 149 85 155 100 q 171 133 179 170 q 187 206 197 243 z"},"d":{"x_min":0,"x_max":447,"ha":447,"o":"m 448 226 q 458 225 460 221 q 463 217 462 212 q 461 208 458 203 q 456 198 455 194 q 448 156 438 121 q 429 86 409 54 q 383 18 352 10 q 322 3 293 16 q 264 29 241 59 q 218 89 209 127 q 207 133 205 140 q 203 147 201 156 q 193 133 186 111 q 179 89 167 69 q 158 54 147 41 q 136 28 123 14 q 116 8 104 5 q 92 2 80 2 q 67 3 54 6 q 42 10 33 16 q -17 50 -29 94 q -41 138 -37 188 q -35 220 -22 248 q -8 275 12 299 q 24 313 44 324 q 65 335 90 340 q 114 344 140 340 q 167 337 192 321 q 197 361 200 398 q 202 436 209 474 q 214 505 221 536 q 228 568 239 598 q 250 628 266 657 q 283 686 308 712 q 326 731 352 741 q 377 751 402 750 q 428 749 450 736 q 471 722 482 692 q 461 713 440 719 q 420 725 402 718 q 384 711 370 692 q 355 673 346 645 q 326 582 314 512 q 302 441 298 368 q 293 295 296 224 q 300 153 312 89 q 313 79 316 68 q 320 56 326 48 q 333 40 342 37 q 351 34 364 42 q 375 50 382 60 q 389 69 395 78 q 409 106 416 136 q 423 166 431 195 q 431 199 431 205 q 431 211 432 216 q 433 221 436 224 q 440 227 448 226 z m 189 220 q 199 255 182 287 q 169 308 148 309 q 128 310 113 289 q 99 268 88 238 q 77 207 71 174 q 65 141 66 108 q 66 76 75 50 q 82 33 92 32 q 102 32 112 40 q 122 49 131 62 q 140 75 145 84 q 161 116 170 150 q 179 185 189 220 z"},"1":{"x_min":0,"x_max":306,"ha":306,"o":"m 104 694 q 83 692 66 670 q 49 647 38 589 q 38 588 36 600 q 33 611 34 628 q 34 646 40 667 q 45 688 60 706 q 75 724 102 736 q 130 747 174 746 q 193 744 199 736 q 205 727 203 711 q 201 656 199 600 q 197 545 194 491 q 192 444 189 399 q 186 354 184 307 q 180 246 178 184 q 175 123 172 61 q 170 43 176 36 q 181 29 198 31 q 215 32 231 30 q 247 28 262 34 q 268 37 274 38 q 280 39 283 32 q 288 21 282 17 q 277 13 271 10 q 256 3 242 2 q 227 0 212 0 q 198 1 184 4 q 169 6 155 8 q 134 10 112 13 q 91 16 71 18 q 59 19 47 16 q 35 13 25 5 q 19 1 13 0 q 7 -2 2 4 q -5 11 0 16 q 5 22 10 26 q 27 42 47 44 q 67 46 87 44 q 127 40 124 80 q 119 230 116 380 q 113 529 109 681 q 109 683 108 686 q 106 689 104 694 z"},"5":{"x_min":0,"x_max":475,"ha":475,"o":"m 156 678 q 151 642 146 606 q 142 569 135 533 q 133 513 138 502 q 142 491 166 493 q 226 496 280 480 q 335 463 376 411 q 416 360 423 298 q 430 235 410 177 q 390 119 346 74 q 302 30 241 14 q 193 2 152 8 q 110 15 78 38 q 47 61 26 99 q 5 137 -2 189 q -5 199 -5 210 q -3 223 6 226 q 14 226 16 222 q 19 218 21 213 q 23 202 24 192 q 24 181 26 170 q 35 116 70 82 q 104 47 156 36 q 197 28 234 48 q 272 69 301 115 q 329 166 334 225 q 338 284 318 335 q 299 386 256 422 q 212 457 144 461 q 122 461 103 472 q 84 484 82 509 q 77 557 78 603 q 80 649 73 697 q 71 715 72 726 q 72 736 76 740 q 79 745 88 746 q 97 747 113 746 q 176 741 238 738 q 300 736 362 750 q 367 752 373 751 q 379 750 381 743 q 383 734 376 720 q 370 705 365 702 q 350 695 330 695 q 311 695 290 698 q 269 700 248 704 q 227 707 208 706 q 190 706 176 700 q 162 694 156 678 z"}}}
